<svg class="animated" id="freepik_stories-grandma" xmlns="http://www.w3.org/2000/svg" viewBox="0 0 500 500" version="1.1" xmlns:xlink="http://www.w3.org/1999/xlink" xmlns:svgjs="http://svgjs.com/svgjs"><style>svg#freepik_stories-grandma:not(.animated) .animable {opacity: 0;}svg#freepik_stories-grandma.animated #freepik--background-complete--inject-38 {animation: 6s Infinite  linear heartbeat;animation-delay: 0s;}svg#freepik_stories-grandma.animated #freepik--Shadow--inject-38 {animation: 1s 1 forwards cubic-bezier(.36,-0.01,.5,1.38) slideUp;animation-delay: 0s;}svg#freepik_stories-grandma.animated #freepik--Lamp--inject-38 {animation: 6s Infinite  linear heartbeat;animation-delay: 0s;}svg#freepik_stories-grandma.animated #freepik--Sofa--inject-38 {animation: 1.5s Infinite  linear floating;animation-delay: 0s;}svg#freepik_stories-grandma.animated #freepik--Character--inject-38 {animation: 1.5s Infinite  linear floating;animation-delay: 0s;}            @keyframes heartbeat {                0% {                    transform: scale(1);                }                10% {                    transform: scale(1.1);                }                30% {                    transform: scale(1);                }                40% {                    transform: scale(1);                }                50% {                    transform: scale(1.1);                }                60% {                    transform: scale(1);                }                100% {                    transform: scale(1);                }            }                    @keyframes slideUp {                0% {                    opacity: 0;                    transform: translateY(30px);                }                100% {                    opacity: 1;                    transform: inherit;                }            }                    @keyframes floating {                0% {                    opacity: 1;                    transform: translateY(0px);                }                50% {                    transform: translateY(-10px);                }                100% {                    opacity: 1;                    transform: translateY(0px);                }            }        </style><g id="freepik--background-complete--inject-38" class="animable" style="transform-origin: 250px 230.345px;"><rect x="416.78" y="398.49" width="33.12" height="0.25" style="fill: rgb(235, 235, 235); transform-origin: 433.34px 398.615px;" id="elx9r4vn5eino" class="animable"></rect><rect x="322.53" y="401.21" width="8.69" height="0.25" style="fill: rgb(235, 235, 235); transform-origin: 326.875px 401.335px;" id="elo6c6b04mkr" class="animable"></rect><rect x="396.59" y="389.21" width="19.19" height="0.25" style="fill: rgb(235, 235, 235); transform-origin: 406.185px 389.335px;" id="elb66xwi8yym" class="animable"></rect><rect x="52.46" y="390.89" width="43.19" height="0.25" style="fill: rgb(235, 235, 235); transform-origin: 74.055px 391.015px;" id="elwydv6n09xvq" class="animable"></rect><rect x="104.56" y="390.89" width="6.33" height="0.25" style="fill: rgb(235, 235, 235); transform-origin: 107.725px 391.015px;" id="el3tomekyhyw8" class="animable"></rect><rect x="131.47" y="395.11" width="93.68" height="0.25" style="fill: rgb(235, 235, 235); transform-origin: 178.31px 395.235px;" id="el8px588kwgdg" class="animable"></rect><path d="M237,337.8H43.91a5.71,5.71,0,0,1-5.7-5.71V60.66A5.71,5.71,0,0,1,43.91,55H237a5.71,5.71,0,0,1,5.71,5.71V332.09A5.71,5.71,0,0,1,237,337.8ZM43.91,55.2a5.46,5.46,0,0,0-5.45,5.46V332.09a5.46,5.46,0,0,0,5.45,5.46H237a5.47,5.47,0,0,0,5.46-5.46V60.66A5.47,5.47,0,0,0,237,55.2Z" style="fill: rgb(235, 235, 235); transform-origin: 140.46px 196.4px;" id="eli48jbmsp06" class="animable"></path><path d="M453.31,337.8H260.21a5.72,5.72,0,0,1-5.71-5.71V60.66A5.72,5.72,0,0,1,260.21,55h193.1A5.71,5.71,0,0,1,459,60.66V332.09A5.71,5.71,0,0,1,453.31,337.8ZM260.21,55.2a5.47,5.47,0,0,0-5.46,5.46V332.09a5.47,5.47,0,0,0,5.46,5.46h193.1a5.47,5.47,0,0,0,5.46-5.46V60.66a5.47,5.47,0,0,0-5.46-5.46Z" style="fill: rgb(235, 235, 235); transform-origin: 356.75px 196.4px;" id="el427f8no1c4n" class="animable"></path><rect y="382.4" width="500" height="0.25" style="fill: rgb(235, 235, 235); transform-origin: 250px 382.525px;" id="elgij0tkf0z5p" class="animable"></rect><polygon points="136.43 383.54 135.41 405.69 132.97 405.69 129.76 388.76 136.43 383.54" style="fill: rgb(224, 224, 224); transform-origin: 133.095px 394.615px;" id="el9ijptepm6gt" class="animable"></polygon><polygon points="68.09 383.54 69.12 405.69 71.56 405.69 74.77 388.76 68.09 383.54" style="fill: rgb(224, 224, 224); transform-origin: 71.43px 394.615px;" id="eljhmfsep28d" class="animable"></polygon><polygon points="55.01 293.83 60.21 391.98 66.08 391.98 65.93 388.55 139.32 388.55 139.17 391.98 145.05 391.98 150.01 293.83 55.01 293.83" style="fill: rgb(245, 245, 245); transform-origin: 102.51px 342.905px;" id="el05cwsew09t7e" class="animable"></polygon><polygon points="65.71 383.33 139.55 383.33 143.19 299.78 62.09 299.78 65.71 383.33" style="fill: rgb(250, 250, 250); transform-origin: 102.64px 341.555px;" id="elc4ctenojkxt" class="animable"></polygon><polygon points="65.42 323.89 139.11 323.89 139.93 303.81 64.61 303.81 65.42 323.89" style="fill: rgb(235, 235, 235); transform-origin: 102.27px 313.85px;" id="elzjecv8e7ej" class="animable"></polygon><polygon points="68.01 380.83 136.99 380.83 139.19 326.38 65.81 326.38 68.01 380.83" style="fill: rgb(235, 235, 235); transform-origin: 102.5px 353.605px;" id="el6h73komw15c" class="animable"></polygon><ellipse cx="102.42" cy="312.88" rx="3.36" ry="2.9" style="fill: rgb(255, 255, 255); transform-origin: 102.42px 312.88px;" id="elx4opfev3w6g" class="animable"></ellipse><path d="M131.14,357h0a2.29,2.29,0,0,0,2.44-2.1v-14.5a2.29,2.29,0,0,0-2.44-2.1h0a2.28,2.28,0,0,0-2.43,2.1v14.5A2.28,2.28,0,0,0,131.14,357Z" style="fill: rgb(255, 255, 255); transform-origin: 131.145px 347.65px;" id="elyziy4sr95vm" class="animable"></path><polygon points="59.75 383.33 60.78 405.48 64.26 405.48 67.47 388.55 59.75 383.33" style="fill: rgb(235, 235, 235); transform-origin: 63.61px 394.405px;" id="el564hpgowcu9" class="animable"></polygon><polygon points="145.01 383.54 143.99 405.69 140.5 405.69 137.29 388.76 145.01 383.54" style="fill: rgb(235, 235, 235); transform-origin: 141.15px 394.615px;" id="elri7fu5v64b" class="animable"></polygon><path d="M356.86,206.84a139.34,139.34,0,0,0,34.71,0,2.86,2.86,0,0,0,.63,1c1.13,1.13,4.08,0,4.08,0s1.13-3,0-4.08c-.24-.24-.67-.27-.81-.56-1.19-2.41.94-7,.95-12s-2.11-9.58-.92-12c.48-1,1.66-1.44,1.66-2.59s-1.17-1.63-1.65-2.6c-1.19-2.42.94-7,1-12s-2.11-9.58-.91-12c.14-.29.56-.32.8-.56,1.13-1.12,0-4.07,0-4.07s-2.95-1.13-4.08,0c-.28.28-.3.78-.63,1-3.09,1.69-9.93-1.1-17.35-1.11S360,148.06,357,146.36c-.33-.18-.35-.68-.63-1-1.13-1.13-4.08,0-4.08,0s-1.13,3,0,4.08c.24.24.67.27.81.56,1.19,2.41-.94,7-1,12s2.11,9.57.92,12c-.48,1-1.66,1.44-1.66,2.59s1.17,1.63,1.65,2.6c1.19,2.42-.94,7-.95,12s2.11,9.58.91,12c-.14.29-.56.32-.8.56-1.13,1.12,0,4.07,0,4.07s3,1.13,4.08,0A2.86,2.86,0,0,0,356.86,206.84Z" style="fill: rgb(224, 224, 224); transform-origin: 374.26px 176.6px;" id="elj3u9b7lsu19" class="animable"></path><path d="M355.44,206.84a139.26,139.26,0,0,0,34.7,0,3,3,0,0,0,.64,1c1.12,1.13,4.08,0,4.08,0s1.13-3,0-4.08c-.24-.24-.66-.27-.81-.56-1.18-2.41.95-7,.95-12s-2.11-9.58-.91-12c.48-1,1.65-1.44,1.65-2.59s-1.17-1.63-1.64-2.6c-1.19-2.42.94-7,.94-12s-2.11-9.58-.91-12c.14-.29.57-.32.81-.56,1.13-1.12,0-4.07,0-4.07s-2.94-1.13-4.07,0c-.29.28-.31.78-.64,1-3.09,1.69-9.93-1.1-17.35-1.11s-14.27,2.76-17.36,1.06c-.33-.18-.35-.68-.63-1-1.12-1.13-4.08,0-4.08,0s-1.13,3,0,4.08c.24.24.66.27.8.56,1.19,2.41-.94,7-.94,12s2.1,9.57.91,12c-.48,1-1.65,1.44-1.66,2.59s1.18,1.63,1.65,2.6c1.19,2.42-.94,7-.95,12s2.11,9.58.92,12c-.14.29-.57.32-.81.56-1.13,1.12,0,4.07,0,4.07s2.95,1.13,4.08,0A2.89,2.89,0,0,0,355.44,206.84Z" style="fill: rgb(235, 235, 235); transform-origin: 372.83px 176.585px;" id="elcs8ak09usg" class="animable"></path><path d="M354.21,185.6l0-18A18.61,18.61,0,0,1,372.87,149h0a18.62,18.62,0,0,1,18.59,18.64l0,18a18.61,18.61,0,0,1-18.63,18.59h0A18.62,18.62,0,0,1,354.21,185.6Z" style="fill: rgb(250, 250, 250); transform-origin: 372.835px 176.615px;" id="el4h7gld4moip" class="animable"></path><path d="M281.1,128.5a99.48,99.48,0,0,0,15.58,1,98.33,98.33,0,0,0,15.59-1,2.31,2.31,0,0,0,.57.86c1,1,3.66,0,3.66,0s1-2.65,0-3.66c-.21-.22-.6-.24-.72-.5-1.07-2.17.84-6.3.85-10.76s-1.89-2.42-.82-4.59c.43-.86,1.48-1.29,1.48-2.33s-1.05-1.46-1.47-2.33c-1.07-2.17.84-.78.85-5.24s-1.9-8.6-.82-10.77c.12-.26.51-.28.72-.5,1-1,0-3.66,0-3.66s-2.65-1-3.66,0c-.26.25-.28.7-.58.86-2.77,1.51-8.91-1-15.58-1s-12.81,2.48-15.58.95c-.3-.16-.32-.61-.57-.86-1-1-3.66,0-3.66,0s-1,2.65,0,3.67c.22.21.6.24.72.5,1.07,2.17-.84,6.3-.85,10.76s1.9,3.08.82,5.24c-.43.87-1.48,1.3-1.48,2.33s1.05,1.47,1.48,2.34c1.06,2.17-.85.12-.85,4.58s1.89,8.6.82,10.76c-.13.26-.51.29-.73.5-1,1,0,3.66,0,3.66s2.65,1,3.67,0A2.8,2.8,0,0,0,281.1,128.5Z" style="fill: rgb(224, 224, 224); transform-origin: 296.72px 107.165px;" id="els581kfqp0oq" class="animable"></path><path d="M280.26,128.5a99.57,99.57,0,0,0,15.58,1,98.24,98.24,0,0,0,15.59-1,2.43,2.43,0,0,0,.57.87c1,1,3.66,0,3.66,0s1-2.65,0-3.66c-.21-.22-.59-.24-.72-.5-1.07-2.17.84-6.3.85-10.76s-1.89-2.42-.82-4.59c.43-.86,1.48-1.29,1.49-2.33s-1.06-1.46-1.48-2.33c-1.07-2.17.84-.78.85-5.24s-1.9-8.6-.82-10.77c.12-.26.51-.28.72-.5,1-1,0-3.66,0-3.66s-2.65-1-3.66,0c-.26.25-.28.7-.57.86-2.78,1.51-8.92-1-15.59-1s-12.81,2.48-15.58.95c-.3-.16-.32-.6-.57-.86-1-1-3.66,0-3.66,0s-1,2.64,0,3.66c.22.21.6.24.73.5,1.06,2.17-.85,6.3-.86,10.76s1.9,3.08.82,5.24c-.43.87-1.48,1.3-1.48,2.33s1.05,1.47,1.48,2.34c1.06,2.17-.85.12-.85,4.58s1.89,8.6.82,10.76c-.13.26-.51.29-.73.5-1,1,0,3.66,0,3.66s2.64,1,3.66,0A2.69,2.69,0,0,0,280.26,128.5Z" style="fill: rgb(235, 235, 235); transform-origin: 295.885px 107.175px;" id="el9to6hi0z1uw" class="animable"></path><g id="elcuxwv2ldtyh"><rect x="276.49" y="90.5" width="37.89" height="33.43" style="fill: rgb(250, 250, 250); transform-origin: 295.435px 107.215px; transform: rotate(90.11deg);" class="animable"></rect></g><rect x="396.41" y="290.3" width="37.34" height="0.52" style="fill: rgb(224, 224, 224); transform-origin: 415.08px 290.56px;" id="elgaxbesmww4i" class="animable"></rect><rect x="405.22" y="286.53" width="4.41" height="2.59" style="fill: rgb(224, 224, 224); transform-origin: 407.425px 287.825px;" id="elbunv5v2u037" class="animable"></rect><polygon points="409.63 286.53 409.63 289.12 423.89 287.82 423.89 286.53 409.63 286.53" style="fill: rgb(224, 224, 224); transform-origin: 416.76px 287.825px;" id="elu0zgw9aeys" class="animable"></polygon><polygon points="425.32 289.12 424.61 290.57 423.89 289.12 423.89 284.99 425.32 284.99 425.32 289.12" style="fill: rgb(224, 224, 224); transform-origin: 424.605px 287.78px;" id="elwgx5q4jgewr" class="animable"></polygon><rect x="405.22" y="289.12" width="2.88" height="2.88" style="fill: rgb(224, 224, 224); transform-origin: 406.66px 290.56px;" id="ell844uvm0j3" class="animable"></rect><rect x="413.45" y="290.3" width="4.04" height="1.7" style="fill: rgb(224, 224, 224); transform-origin: 415.47px 291.15px;" id="ellx1octep9df" class="animable"></rect><rect x="394.26" y="292" width="41.84" height="13.42" style="fill: rgb(235, 235, 235); transform-origin: 415.18px 298.71px;" id="elgwhcxdjneio" class="animable"></rect><path d="M386.66,275.3a3.19,3.19,0,0,0,2.93,1.88h0a27.37,27.37,0,0,1,29-8.07c7.78,2.49,14.5,5,17.55,8.32,1.67,1.81,1.44,7.16,0,10.65-.79,1.88-1.54,3.4-1.75,3.92h1.78v.14c.62-.77,9-11.33,5.85-16.36-3.53-5.63-15.82-13.07-25.15-18.15A27.35,27.35,0,0,1,403.08,239l-1-5.16-.23.48a1.67,1.67,0,0,0-.66-.52c-1.82-.8-4.15,1.56-4.85,3a6.08,6.08,0,0,0,.86,6.49A8.61,8.61,0,0,0,392,257.3a7.32,7.32,0,0,0-1.64,12.94,6.39,6.39,0,0,0-3,1.8A3.36,3.36,0,0,0,386.66,275.3Z" style="fill: rgb(235, 235, 235); transform-origin: 414.614px 262.889px;" id="elu2s56ax9g2n" class="animable"></path><g id="elxewzdxjsrhk"><rect x="369.63" y="379.9" width="54.51" height="13.57" style="fill: rgb(235, 235, 235); transform-origin: 396.885px 386.685px; transform: rotate(180deg);" class="animable"></rect></g><g id="ela2sdsq8bxlf"><rect x="369.8" y="379.96" width="54.51" height="13.57" style="fill: rgb(255, 255, 255); opacity: 0.1; isolation: isolate; transform-origin: 397.055px 386.745px; transform: rotate(180deg);" class="animable"></rect></g><g id="elvf6cd3qofe"><rect x="369.63" y="379.96" width="41.84" height="13.57" style="fill: rgb(255, 255, 255); opacity: 0.6; isolation: isolate; transform-origin: 390.55px 386.745px; transform: rotate(180deg);" class="animable"></rect></g><polygon points="369.89 391.74 424.14 393.42 424.08 392.05 369.86 391.34 369.89 391.74" style="fill: rgb(224, 224, 224); isolation: isolate; transform-origin: 397px 392.38px;" id="elwxutotlm6p" class="animable"></polygon><polygon points="424.14 385.46 369.98 382.41 369.98 382.87 424.14 386.5 424.14 385.46" style="fill: rgb(224, 224, 224); isolation: isolate; transform-origin: 397.06px 384.455px;" id="elj1u08p2500n" class="animable"></polygon><polygon points="424.14 381.37 369.98 382.61 369.98 383.05 424.14 382.4 424.14 381.37" style="fill: rgb(224, 224, 224); isolation: isolate; transform-origin: 397.06px 382.21px;" id="eloitlecia24b" class="animable"></polygon><polygon points="424.3 388.13 370.12 390.77 370.12 390.37 424.3 387.22 424.3 388.13" style="fill: rgb(224, 224, 224); isolation: isolate; transform-origin: 397.21px 388.995px;" id="elewj3pnqj4i8" class="animable"></polygon><polygon points="369.76 380.07 423.93 380.12 423.93 380.56 369.76 380.56 369.76 380.07" style="fill: rgb(224, 224, 224); isolation: isolate; transform-origin: 396.845px 380.315px;" id="el1le999m25l8" class="animable"></polygon><g id="elcyecea60e8"><rect x="373.54" y="339.5" width="54.51" height="13.57" style="fill: rgb(224, 224, 224); transform-origin: 400.795px 346.285px; transform: rotate(180deg);" class="animable"></rect></g><g id="elg09szf30n8"><rect x="373.86" y="340.04" width="54.51" height="13.57" style="fill: rgb(255, 255, 255); opacity: 0.5; isolation: isolate; transform-origin: 401.115px 346.825px; transform: rotate(180deg);" class="animable"></rect></g><g id="elqu3wpbfxmz"><rect x="373.54" y="339.55" width="41.84" height="13.57" style="fill: rgb(255, 255, 255); opacity: 0.6; isolation: isolate; transform-origin: 394.46px 346.335px; transform: rotate(180deg);" class="animable"></rect></g><polygon points="373.8 351.33 428.05 353.02 427.99 351.64 373.77 350.94 373.8 351.33" style="fill: rgb(224, 224, 224); isolation: isolate; transform-origin: 400.91px 351.98px;" id="elq9msjtvkhtd" class="animable"></polygon><polygon points="428.05 345.06 373.89 342.01 373.89 342.47 428.05 346.09 428.05 345.06" style="fill: rgb(224, 224, 224); isolation: isolate; transform-origin: 400.97px 344.05px;" id="elbvmfqchdyac" class="animable"></polygon><polygon points="428.05 340.96 373.89 342.2 373.89 342.65 428.05 342 428.05 340.96" style="fill: rgb(224, 224, 224); isolation: isolate; transform-origin: 400.97px 341.805px;" id="el2rrp176ny68" class="animable"></polygon><polygon points="428.21 347.73 374.03 350.37 374.03 349.97 428.21 346.82 428.21 347.73" style="fill: rgb(224, 224, 224); isolation: isolate; transform-origin: 401.12px 348.595px;" id="el60f81bhu2hp" class="animable"></polygon><g id="elgrslfzxt699"><rect x="372.86" y="366.14" width="54.51" height="13.57" style="fill: rgb(224, 224, 224); transform-origin: 400.115px 372.925px; transform: rotate(180deg);" class="animable"></rect></g><g id="elbexih96sb9"><rect x="373.04" y="366.2" width="54.51" height="13.57" style="fill: rgb(255, 255, 255); opacity: 0.5; isolation: isolate; transform-origin: 400.295px 372.985px; transform: rotate(180deg);" class="animable"></rect></g><g id="elagdu20sj9uw"><rect x="372.98" y="366.2" width="41.84" height="13.57" style="fill: rgb(255, 255, 255); opacity: 0.6; isolation: isolate; transform-origin: 393.9px 372.985px;" class="animable"></rect></g><polygon points="427.14 377.59 372.92 378.29 372.86 379.67 427.11 377.99 427.14 377.59" style="fill: rgb(224, 224, 224); isolation: isolate; transform-origin: 400px 378.63px;" id="elh0mfrkeh6l8" class="animable"></polygon><polygon points="373.21 366.32 427.38 366.37 427.38 366.81 373.21 366.81 373.21 366.32" style="fill: rgb(224, 224, 224); isolation: isolate; transform-origin: 400.295px 366.565px;" id="el9xf2523bod" class="animable"></polygon><polygon points="372.86 372.74 427.03 369.12 427.03 368.66 372.86 371.71 372.86 372.74" style="fill: rgb(224, 224, 224); isolation: isolate; transform-origin: 399.945px 370.7px;" id="eljk1vvh7cmzf" class="animable"></polygon><polygon points="427.38 367.61 373.21 368.85 373.21 369.3 427.38 368.65 427.38 367.61" style="fill: rgb(224, 224, 224); isolation: isolate; transform-origin: 400.295px 368.455px;" id="el2snqwsfvjwi" class="animable"></polygon><polygon points="427.53 374.38 373.35 377.02 373.35 376.62 427.53 373.47 427.53 374.38" style="fill: rgb(224, 224, 224); isolation: isolate; transform-origin: 400.44px 375.245px;" id="elkc62frppd0c" class="animable"></polygon><polygon points="425.49 353.36 371 353.63 370.92 366.92 425.49 366.92 425.49 353.36" style="fill: rgb(224, 224, 224); transform-origin: 398.205px 360.14px;" id="el5n0z3r7aajn" class="animable"></polygon><g id="elj807k8hz7c"><rect x="370.97" y="353.36" width="54.51" height="13.57" style="fill: rgb(255, 255, 255); opacity: 0.5; isolation: isolate; transform-origin: 398.225px 360.145px; transform: rotate(180deg);" class="animable"></rect></g><g id="elo6gako3zege"><rect x="370.92" y="353.36" width="41.84" height="13.57" style="fill: rgb(255, 255, 255); opacity: 0.6; isolation: isolate; transform-origin: 391.84px 360.145px;" class="animable"></rect></g><polygon points="414.4 353.63 371 353.63 371 355.01 413.47 355.01 414.4 353.63" style="fill: rgb(224, 224, 224); isolation: isolate; transform-origin: 392.7px 354.32px;" id="el8rw5kmdjp2v" class="animable"></polygon><polygon points="425.17 359.19 371 359.69 371 360.09 425.17 360.09 425.17 359.19" style="fill: rgb(224, 224, 224); isolation: isolate; transform-origin: 398.085px 359.64px;" id="elawug037xtqi" class="animable"></polygon><polygon points="371 365.46 425.17 362.82 425.17 363.22 371 366.37 371 365.46" style="fill: rgb(224, 224, 224); isolation: isolate; transform-origin: 398.085px 364.595px;" id="els1npl5q8yv9" class="animable"></polygon><polygon points="371 360.36 425.17 361.44 425.17 361.83 371 361.27 371 360.36" style="fill: rgb(224, 224, 224); isolation: isolate; transform-origin: 398.085px 361.095px;" id="elyiojd21uvfn" class="animable"></polygon><rect x="385.24" y="323.85" width="54.17" height="6.83" style="fill: rgb(224, 224, 224); transform-origin: 412.325px 327.265px;" id="elj6cogb3b7go" class="animable"></rect><g id="elqpfziqtdkc"><rect x="385.24" y="323.85" width="54.17" height="6.83" style="fill: rgb(255, 255, 255); opacity: 0.5; isolation: isolate; transform-origin: 412.325px 327.265px;" class="animable"></rect></g><g id="elx8fvn46ws2"><rect x="385.24" y="323.85" width="43.17" height="6.83" style="fill: rgb(255, 255, 255); opacity: 0.6; isolation: isolate; transform-origin: 406.825px 327.265px;" class="animable"></rect></g><polygon points="439.44 328.69 385.27 328.96 385.27 329.16 439.44 329.16 439.44 328.69" style="fill: rgb(224, 224, 224); isolation: isolate; transform-origin: 412.355px 328.925px;" id="elc1oeq0l86ju" class="animable"></polygon><polygon points="385.27 326.14 439.44 324.76 439.44 324.97 385.27 326.61 385.27 326.14" style="fill: rgb(224, 224, 224); isolation: isolate; transform-origin: 412.355px 325.685px;" id="eljee73m4wpri" class="animable"></polygon><polygon points="385.09 325.76 439.26 326.32 439.26 326.53 385.09 326.23 385.09 325.76" style="fill: rgb(224, 224, 224); isolation: isolate; transform-origin: 412.175px 326.145px;" id="eluc0a87tdhjj" class="animable"></polygon><rect x="377.66" y="320.84" width="54.17" height="3.29" style="fill: rgb(224, 224, 224); transform-origin: 404.745px 322.485px;" id="elrqwqnlh4k9" class="animable"></rect><g id="elgahdr5xslwn"><rect x="377.66" y="320.87" width="54.17" height="3.26" style="fill: rgb(255, 255, 255); opacity: 0.5; isolation: isolate; transform-origin: 404.745px 322.5px;" class="animable"></rect></g><g id="elclvltzrtb4q"><rect x="377.66" y="320.66" width="43.17" height="3.47" style="fill: rgb(255, 255, 255); opacity: 0.6; isolation: isolate; transform-origin: 399.245px 322.395px;" class="animable"></rect></g><polygon points="377.69 323.35 431.85 321.97 431.85 322.18 377.69 323.81 377.69 323.35" style="fill: rgb(224, 224, 224); isolation: isolate; transform-origin: 404.77px 322.89px;" id="el0u3q8nkf36ng" class="animable"></polygon><polygon points="377.69 321.69 431.85 322.25 431.85 322.46 377.69 322.16 377.69 321.69" style="fill: rgb(224, 224, 224); isolation: isolate; transform-origin: 404.77px 322.075px;" id="elmft72a5oeyf" class="animable"></polygon><rect x="382.7" y="317.48" width="54.17" height="3.29" style="fill: rgb(224, 224, 224); transform-origin: 409.785px 319.125px;" id="elcbh9fjyypxc" class="animable"></rect><g id="elzt047r16rfs"><rect x="382.7" y="317.51" width="54.17" height="3.26" style="fill: rgb(255, 255, 255); opacity: 0.5; isolation: isolate; transform-origin: 409.785px 319.14px;" class="animable"></rect></g><g id="elh0ulze8iozt"><rect x="382.7" y="317.3" width="43.17" height="3.47" style="fill: rgb(255, 255, 255); opacity: 0.6; isolation: isolate; transform-origin: 404.285px 319.035px;" class="animable"></rect></g><polygon points="382.74 318.96 436.92 319.63 436.91 319.83 382.72 319.43 382.74 318.96" style="fill: rgb(224, 224, 224); isolation: isolate; transform-origin: 409.82px 319.395px;" id="elwdq5uol365" class="animable"></polygon><polygon points="382.73 318.33 436.9 318.89 436.9 319.1 382.73 318.8 382.73 318.33" style="fill: rgb(224, 224, 224); isolation: isolate; transform-origin: 409.815px 318.715px;" id="elllcy3drnxdi" class="animable"></polygon><rect x="381.57" y="330.68" width="54.17" height="8.8" style="fill: rgb(224, 224, 224); transform-origin: 408.655px 335.08px;" id="elc1h4gfylgea" class="animable"></rect><g id="elueqc0kkgj4s"><rect x="381.57" y="330.68" width="54.17" height="8.8" style="fill: rgb(255, 255, 255); opacity: 0.5; isolation: isolate; transform-origin: 408.655px 335.08px;" class="animable"></rect></g><g id="elgy7z63zijjw"><rect x="381.57" y="330.68" width="41.8" height="8.8" style="fill: rgb(255, 255, 255); opacity: 0.6; isolation: isolate; transform-origin: 402.47px 335.08px;" class="animable"></rect></g><polygon points="435.4 333.41 381.23 333.1 381.23 332.87 435.4 332.87 435.4 333.41" style="fill: rgb(224, 224, 224); isolation: isolate; transform-origin: 408.315px 333.14px;" id="elxjyss3684vm" class="animable"></polygon><polygon points="381.6 334.69 435.77 336.28 435.77 336.04 381.6 334.15 381.6 334.69" style="fill: rgb(224, 224, 224); isolation: isolate; transform-origin: 408.685px 335.215px;" id="el0t3cn3gh9ck9" class="animable"></polygon><polygon points="435.77 330.69 384.68 330.69 385.81 331.77 435.77 331.77 435.77 330.69" style="fill: rgb(224, 224, 224); isolation: isolate; transform-origin: 410.225px 331.23px;" id="elf7fsb87nfx6" class="animable"></polygon><polygon points="381.79 338.12 435.96 337.46 435.96 337.23 381.79 337.57 381.79 338.12" style="fill: rgb(224, 224, 224); isolation: isolate; transform-origin: 408.875px 337.675px;" id="elp3vpssfej5p" class="animable"></polygon><path d="M442.24,317.76H386.5V305.28h55.74a39.58,39.58,0,0,1,0,12.48Z" style="fill: rgb(224, 224, 224); transform-origin: 414.617px 311.52px;" id="elv7uqyzvhaj9" class="animable"></path><rect x="388.59" y="305.66" width="2.91" height="11.58" style="fill: rgb(255, 255, 255); transform-origin: 390.045px 311.45px;" id="elozjl29rmako" class="animable"></rect><g id="ela9uu9btacwq"><rect x="82.11" y="85.62" width="105.58" height="144.91" style="fill: rgb(224, 224, 224); transform-origin: 134.9px 158.075px; transform: rotate(180deg);" class="animable"></rect></g><g id="elcycfzz4zbsg"><rect x="77.78" y="85.62" width="110.62" height="144.91" style="fill: rgb(240, 240, 240); transform-origin: 133.09px 158.075px; transform: rotate(180deg);" class="animable"></rect></g><g id="el8j5s0n4gaal"><rect x="83.73" y="90.41" width="98.95" height="133.24" style="fill: rgb(255, 255, 255); transform-origin: 133.205px 157.03px; transform: rotate(180deg);" class="animable"></rect></g><g id="elq6hun6bl1od"><rect x="83.73" y="90.41" width="3.73" height="133.24" style="fill: rgb(224, 224, 224); transform-origin: 85.595px 157.03px; transform: rotate(180deg);" class="animable"></rect></g><g id="eluhdxcsai3p"><rect x="133.17" y="127.82" width="3.73" height="95.95" style="fill: rgb(224, 224, 224); transform-origin: 135.035px 175.795px; transform: rotate(-90deg);" class="animable"></rect></g><g id="elkhr9l9zdrnn"><rect x="83.73" y="167.67" width="100.95" height="6.26" style="fill: rgb(240, 240, 240); transform-origin: 134.205px 170.8px; transform: rotate(180deg);" class="animable"></rect></g><path d="M135.09,192.57a3.23,3.23,0,0,1,3.44-1.72,3.39,3.39,0,0,1,2.55,3,2.88,2.88,0,0,1,3.26-.09,3.26,3.26,0,0,1,1.32,3.16,2.39,2.39,0,0,1,3.48.71,2.69,2.69,0,0,1-1.06,3.58,1.73,1.73,0,0,1-.09,3.44,1.88,1.88,0,0,1,1.72,1.64,1.92,1.92,0,0,1-1.3,2,1.58,1.58,0,0,1,.38,2.43,1.42,1.42,0,0,1-2.23-.71.46.46,0,0,1-.73.12.52.52,0,0,1,.14-.77.85.85,0,0,1-1.47-.38c.29,1.55-1.56,3-2.87,2.27a1.31,1.31,0,0,1-.86,1.75,3,3,0,0,1-2.07-.41,4.68,4.68,0,0,0-2-.69,6.6,6.6,0,0,0-1.82.51,5.47,5.47,0,0,1-5.56-1.47,2.36,2.36,0,0,1-4-.6,1.78,1.78,0,0,1-1.56,1.41,1.76,1.76,0,0,1-1.7-1.22c0,.34,0,.68,0,1a2.11,2.11,0,0,1-2.16-2.82,2.13,2.13,0,0,1-2-1.87,2.22,2.22,0,0,1,1.52-2.36,4.17,4.17,0,0,1-.08-7.9,2,2,0,0,1,1.9.26,1.21,1.21,0,0,1,0,1.8,3.82,3.82,0,0,1,1.63-4.3,3.39,3.39,0,0,1,4.29.92,2.17,2.17,0,0,1,0-2.38,1.88,1.88,0,0,1,2.14-.72,2.16,2.16,0,0,1,2.33-1.76,2.23,2.23,0,0,1,1.74,2.39,1.09,1.09,0,0,1,2-.37C135.85,192.27,135.09,192.57,135.09,192.57Z" style="fill: rgb(235, 235, 235); transform-origin: 133.132px 201.715px;" id="el7ej0ounv0ba" class="animable"></path><path d="M134.7,202.86a2,2,0,0,1,1.48-.36,1.35,1.35,0,0,1,1.07,1,1,1,0,0,1-.72,1.21c-.61.15-1.22-.36-1.85-.27-.22,0-.43.14-.65.19a3.15,3.15,0,0,1-2.53-.9,2.83,2.83,0,0,1-.71-.67.92.92,0,0,1-.07-.93,1.2,1.2,0,0,1,1.22-.4,4.88,4.88,0,0,1,2.5,1c0-.14,0-.28-.07-.43Z" style="fill: rgb(250, 250, 250); transform-origin: 133.953px 203.216px;" id="elqoxcfkmjij" class="animable"></path><path d="M121.64,202.08a2.48,2.48,0,0,1,.79-.41.78.78,0,0,1,.81.23A.83.83,0,0,1,123,203a2.54,2.54,0,0,1-1.15.39c-.41.06-.94.07-1.14-.29a.72.72,0,0,1,.19-.83,2.09,2.09,0,0,1,.82-.4Z" style="fill: rgb(250, 250, 250); transform-origin: 122.003px 202.529px;" id="elhgzg72m5j4m" class="animable"></path><path d="M142.27,195.29a2.86,2.86,0,0,1,1.67,2c.06.26.05.6-.18.74a.72.72,0,0,1-.56,0l-2.39-.56a3.24,3.24,0,0,1,1.07.57,1.13,1.13,0,0,1,.41,1.09,1.11,1.11,0,0,1-1.11.75,2.4,2.4,0,0,1-1.31-.53,1.65,1.65,0,0,1-.83-1.22c0-.52.63-1,1-.66a9.05,9.05,0,0,1-2.57-1.17,2.47,2.47,0,0,1-.74-.7,1,1,0,0,1-.08-1c.82-1.49,1.85.69,2.36.89C140,195.89,141.06,194.79,142.27,195.29Z" style="fill: rgb(250, 250, 250); transform-origin: 140.262px 196.982px;" id="elsjwv4yux2la" class="animable"></path><path d="M146,201.63a.79.79,0,0,1-.21.83.5.5,0,0,1-.76-.16,2.69,2.69,0,0,1,1.43.81.93.93,0,0,1-.28,1.41,1.33,1.33,0,0,1-1-.22,18.5,18.5,0,0,1-2.47-1.63c.24.55-.33,1.17-.93,1.22a2.88,2.88,0,0,1-1.66-.58c-.62-.38-1.34-1-1.18-1.68a1.23,1.23,0,0,1,1.55-.71,3.49,3.49,0,0,1,1.5,1.15c-.34-.49.14-1.22.73-1.3a1.77,1.77,0,0,1,1.49.69c-.66-.36-.81-1.31.08-1.42C144.87,200,145.85,201.15,146,201.63Z" style="fill: rgb(250, 250, 250); transform-origin: 142.794px 202.29px;" id="elbn6xiws9zte" class="animable"></path><path d="M127.75,199.49a1,1,0,1,1,.48,1.85,1.52,1.52,0,0,1,1,.53.76.76,0,0,1,.21.6.71.71,0,0,1-.71.54,1.92,1.92,0,0,1-.93-.26,1.68,1.68,0,0,1,.91.27.59.59,0,0,1,.14.84.79.79,0,0,1-.76.09,3.78,3.78,0,0,1-1.57-.89,1.51,1.51,0,0,1-1.31.56.89.89,0,0,1-.75-1.07.94.94,0,0,1,.81-.59,2.34,2.34,0,0,1,1,.16,2,2,0,0,1-.84-.92c-.12-.4.15-.94.57-.91s.71.68,1.09.91C127.6,200.77,126.74,199.87,127.75,199.49Z" style="fill: rgb(250, 250, 250); transform-origin: 126.942px 201.675px;" id="ell24865t64p" class="animable"></path><path d="M136.26,197.53a1.91,1.91,0,0,1,.69,1.73,2,2,0,0,1-1,1.77,1.64,1.64,0,0,1-2.11-1.27,2.33,2.33,0,0,1,1.29-2.31A1.24,1.24,0,0,1,136.26,197.53Z" style="fill: rgb(250, 250, 250); transform-origin: 135.398px 199.229px;" id="el51nqwz1vluj" class="animable"></path><path d="M130.23,196.76,130,197a1.07,1.07,0,1,1,0,1.34,1.61,1.61,0,0,1-1.88-.35,1.24,1.24,0,0,1,.26-1.8,1,1,0,0,1,1.44.86l.26-.29Z" style="fill: rgb(250, 250, 250); transform-origin: 129.874px 197.414px;" id="elt293fj21v5" class="animable"></path><path d="M123.57,197.83a3.43,3.43,0,0,1,1,1.45,1.18,1.18,0,0,1-.69,1.46c-.57.15-1.12-.33-1.45-.82a1.81,1.81,0,0,1-.35-1.52c.17-.51.9-.81,1.27-.42Z" style="fill: rgb(250, 250, 250); transform-origin: 123.332px 199.285px;" id="eltdq4csyr05h" class="animable"></path><path d="M133.17,194.34a1,1,0,0,1,1.36-.38,1.2,1.2,0,0,1,.42,1.41,1.53,1.53,0,0,1-1.24.89c-.65.07-1.43-.46-1.28-1.1a1.39,1.39,0,0,1-1.25.47,3.22,3.22,0,0,1-1.3-.49c-.55-.32-1.14-.8-1.08-1.44a1.12,1.12,0,0,1,1-.93,1.9,1.9,0,0,1,1.38.51,9.48,9.48,0,0,0,.88.8,1.09,1.09,0,0,0,1.12.16Z" style="fill: rgb(250, 250, 250); transform-origin: 131.914px 194.517px;" id="elt3ghgmq68v" class="animable"></path><polygon points="124.97 223.64 141.47 223.64 143.09 207.01 123.36 207.01 124.97 223.64" style="fill: rgb(235, 235, 235); transform-origin: 133.225px 215.325px;" id="elrkkon7oy8yj" class="animable"></polygon><polygon points="122.08 207.87 144.53 207.87 144.94 205.66 121.67 205.66 122.08 207.87" style="fill: rgb(245, 245, 245); transform-origin: 133.305px 206.765px;" id="elhx2873ibjm" class="animable"></polygon><path d="M394.93,124.61A108.76,108.76,0,0,0,396,107.26,109,109,0,0,0,395,89.9a3,3,0,0,0,1-.63c1.12-1.13,0-4.08,0-4.08s-2.95-1.13-4.08,0c-.24.24-.26.66-.55.8-2.42,1.19-7-.94-12-.95s-9.57,2.11-12,.92c-1-.48-1.45-1.66-2.6-1.66s-1.63,1.18-2.6,1.65c-2.41,1.19-7-.94-12-1s-9.58,2.11-12,.92c-.29-.15-.31-.57-.55-.81-1.13-1.13-4.08,0-4.08,0s-1.13,3,0,4.08c.29.28.78.31,1,.64,1.69,3.08-1.1,9.93-1.11,17.35s2.76,14.27,1.06,17.35c-.18.33-.67.35-1,.64-1.13,1.12,0,4.07,0,4.07s2.95,1.13,4.07,0c.24-.24.27-.67.56-.81,2.42-1.19,7,.94,12,.95s9.57-2.11,12-.91c1,.48,1.45,1.65,2.6,1.65s1.63-1.17,2.6-1.65c2.41-1.18,7,.95,12,.95s9.57-2.11,12-.91c.28.14.31.57.55.81,1.13,1.12,4.08,0,4.08,0s1.13-2.95,0-4.07A2.74,2.74,0,0,0,394.93,124.61Z" style="fill: rgb(224, 224, 224); transform-origin: 364.743px 107.185px;" id="eltja3b52buma" class="animable"></path><path d="M394.93,126A108.9,108.9,0,0,0,396,108.68,108.86,108.86,0,0,0,395,91.33a2.87,2.87,0,0,0,1-.64c1.12-1.12,0-4.07,0-4.07s-2.95-1.13-4.08,0c-.24.24-.26.67-.55.81-2.42,1.19-7-.94-12-1s-9.57,2.11-12,.91c-1-.47-1.45-1.65-2.6-1.65s-1.63,1.17-2.6,1.65c-2.41,1.18-7-.94-12-.95s-9.58,2.11-12,.91c-.29-.14-.31-.57-.55-.81-1.13-1.12-4.08,0-4.08,0s-1.13,3,0,4.07c.29.29.78.31,1,.64,1.69,3.09-1.1,9.93-1.11,17.35s2.76,14.27,1.06,17.36c-.18.33-.67.35-1,.63-1.13,1.13,0,4.08,0,4.08s2.95,1.13,4.07,0c.24-.24.27-.66.56-.8,2.42-1.19,7,.94,12,.95s9.57-2.11,12-.92c1,.48,1.45,1.66,2.6,1.66s1.63-1.17,2.6-1.65c2.41-1.19,7,.94,12,.95s9.57-2.11,12-.92c.28.15.31.57.55.81,1.13,1.13,4.08,0,4.08,0s1.13-3,0-4.08A2.86,2.86,0,0,0,394.93,126Z" style="fill: rgb(235, 235, 235); transform-origin: 364.743px 108.6px;" id="elynne72ixsjq" class="animable"></path><polygon points="392.33 127.29 337.11 127.21 337.11 89.99 337.11 89.99 392.33 90.07 392.33 90.07 392.33 127.29" style="fill: rgb(250, 250, 250); transform-origin: 364.72px 108.64px;" id="elwp9d70g3d4h" class="animable"></polygon><path d="M91.83,271.18a2.62,2.62,0,1,1-2.62-2.63A2.62,2.62,0,0,1,91.83,271.18Z" style="fill: rgb(235, 235, 235); transform-origin: 89.21px 271.17px;" id="elv4r1dwviobp" class="animable"></path><path d="M70.47,289.56c-8.3-.93-10.52-4.77-11.11-7-.72-2.72.31-5.21,1.64-6.18,5.62-4.09,13.48,3.27,13.81,3.58l-1.45,1.52c-.06-.06-6.92-6.47-11.12-3.41a4.09,4.09,0,0,0-.85,4c.45,1.69,2.26,4.65,9.32,5.43Z" style="fill: rgb(224, 224, 224); transform-origin: 66.9666px 282.353px;" id="elii24xutgr4d" class="animable"></path><path d="M112.38,277.88a14.94,14.94,0,0,1-2.07,9.39c-2.42,3.74-5.42,3.94-6,3.94h-.08v0c3.32-1.54,5.34-3.6,5.34-5.84a6,6,0,0,0-.61-2.45,11.45,11.45,0,0,0,1.09-5.16l0-.22a3.3,3.3,0,0,1,3.39-2.79l.35,2.2C112.65,276.92,112.42,277.64,112.38,277.88Z" style="fill: rgb(224, 224, 224); transform-origin: 109.01px 282.979px;" id="elf6f8ypt81oi" class="animable"></path><path d="M88.74,271.18A23.55,23.55,0,0,0,77.85,274H99.64A23.62,23.62,0,0,0,88.74,271.18Z" style="fill: rgb(224, 224, 224); transform-origin: 88.745px 272.59px;" id="elt2ap164fzd" class="animable"></path><path d="M109,282.89c-1.34-2.95-4.76-6.5-9.36-8.92H77.85c-6,3.14-10,8.2-10,11.37,0,4.82,9.34,8.75,20.87,8.75,6.16,0,11.71-1.12,15.53-2.91,3.32-1.54,5.34-3.6,5.34-5.84A6,6,0,0,0,109,282.89Z" style="fill: rgb(235, 235, 235); transform-origin: 88.72px 284.03px;" id="elrnss2c0g61b" class="animable"></path><path d="M144.32,292.43H124.11a4.26,4.26,0,0,1-2.38-.86h25A4.22,4.22,0,0,1,144.32,292.43Z" style="fill: rgb(224, 224, 224); transform-origin: 134.23px 292px;" id="ellfsth6crg8i" class="animable"></path></g><g id="freepik--Shadow--inject-38" class="animable" style="transform-origin: 250px 415.69px;"><ellipse id="freepik--path--inject-38" cx="250" cy="415.69" rx="193.89" ry="11.32" style="fill: rgb(245, 245, 245); transform-origin: 250px 415.69px;" class="animable"></ellipse></g><g id="freepik--Lamp--inject-38" class="animable" style="transform-origin: 212.095px 252.075px;"><ellipse cx="212" cy="176.69" rx="4.8" ry="3.24" style="fill: rgb(188, 63, 84); transform-origin: 212px 176.69px;" id="elzfm34pzypk" class="animable"></ellipse><path d="M213.6,360.19h-3.24V123.33a1.61,1.61,0,0,1,1.62-1.62h0a1.62,1.62,0,0,1,1.62,1.62Z" style="fill: rgb(188, 63, 84); transform-origin: 211.98px 240.95px;" id="elddrhgdbcywp" class="animable"></path><polygon points="213.5 216.05 210.48 216.05 207.93 178.24 216.05 178.24 213.5 216.05" style="fill: rgb(188, 63, 84); transform-origin: 211.99px 197.145px;" id="eltrpatxuzp0k" class="animable"></polygon><rect x="208.77" y="168.76" width="6.45" height="6.45" style="fill: rgb(188, 63, 84); transform-origin: 211.995px 171.985px;" id="el3wmxhopllwo" class="animable"></rect><polygon points="223.9 382.44 200.07 382.44 200.16 382.23 223.8 382.23 223.9 382.44" style="fill: rgb(188, 63, 84); transform-origin: 211.985px 382.335px;" id="elrzsnqi3o1yt" class="animable"></polygon><path d="M228.46,374.7v7.53H195.72V374.7h0a12.2,12.2,0,0,0,11.11-7.16l4.06-8.93h2.17l4.06,8.93a12.21,12.21,0,0,0,11.11,7.16Z" style="fill: rgb(188, 63, 84); transform-origin: 212.09px 370.42px;" id="el6rd9iujqhzb" class="animable"></path><g id="el007pwmr1z8unt"><path d="M228.46,374.7h-.23a12.21,12.21,0,0,1-11.11-7.16l-3.52-7.76V214.53l2.43-36.1a2.55,2.55,0,0,0,.77-1.74,2.9,2.9,0,0,0-1.57-2.39v-5.54H213.6V123.33a1.62,1.62,0,0,0-3.24,0v45.43h-1.59v5.54a2.9,2.9,0,0,0-1.57,2.39,2.51,2.51,0,0,0,.74,1.7l2.42,35.87V359.79l-3.53,7.75a12.2,12.2,0,0,1-11.11,7.16v7.53h4.45l-.1.21H223.9l-.1-.21h4.66Z" style="fill: rgb(255, 255, 255); opacity: 0.4; transform-origin: 212.09px 252.075px;" class="animable"></path></g><path d="M251.42,164.89h0a524.07,524.07,0,0,1-78.65,0h0L183.14,127h0a141.88,141.88,0,0,1,57.9,0h0Z" style="fill: rgb(188, 63, 84); transform-origin: 212.095px 145.191px;" id="elocu4tj8x7mi" class="animable"></path><g id="ela5nqo96fxch"><path d="M251.42,164.89h0a524.07,524.07,0,0,1-78.65,0h0L183.14,127h0a141.88,141.88,0,0,1,57.9,0h0Z" style="fill: rgb(255, 255, 255); opacity: 0.7; transform-origin: 212.095px 145.191px;" class="animable"></path></g></g><g id="freepik--Sofa--inject-38" class="animable" style="transform-origin: 264.71px 313.53px;"><path d="M246.74,363.48H220.82l13.62-128.15c.58-5.42,4.86-9.82,9.55-9.82h113.1l-16.58,138Z" style="fill: rgb(188, 63, 84); transform-origin: 288.955px 294.51px;" id="el9ovoal3zame" class="animable"></path><g id="eltj9ls4nz8g"><path d="M246.74,363.48H220.82l13.62-128.15c.58-5.42,4.86-9.82,9.55-9.82h113.1l-16.58,138Z" style="fill: rgb(255, 255, 255); opacity: 0.1; transform-origin: 288.955px 294.51px;" class="animable"></path></g><path d="M241,352.43H198.18L195.34,315l-.6-8h0l-.28-3.69a22.75,22.75,0,0,0-.42-2.9l-.15-.64a1.86,1.86,0,0,0-.13-.46,22.1,22.1,0,0,0-19.88-15.5h40.25q.66,0,1.32,0a22.09,22.09,0,0,1,21.1,15.53,1.86,1.86,0,0,1,.13.46,21.43,21.43,0,0,1,.57,3.54l.28,3.69h0Z" style="fill: rgb(188, 63, 84); transform-origin: 207.44px 318.12px;" id="elayo4o6sqgd9" class="animable"></path><path d="M241,352.43H198.18L195.34,315l-.6-8h0l-.28-3.69a22.75,22.75,0,0,0-.42-2.9l-.15-.64a1.86,1.86,0,0,0-.13-.46,22.1,22.1,0,0,0-19.88-15.5h40.25q.66,0,1.32,0a22.09,22.09,0,0,1,21.1,15.53,1.86,1.86,0,0,1,.13.46,21.43,21.43,0,0,1,.57,3.54l.28,3.69h0Z" style="fill: rgb(188, 63, 84); transform-origin: 207.44px 318.12px;" id="elnk3c4icndmd" class="animable"></path><path d="M328.94,363.48h25.92l13.62-128.15c.58-5.42-2.76-9.82-7.46-9.82h-8.91c-4.69,0-9,4.4-9.55,9.82Z" style="fill: rgb(188, 63, 84); transform-origin: 348.743px 294.495px;" id="elu2y60z5tkv" class="animable"></path><path d="M280.59,323h15.59c3.79,0,6.86,3.55,6.86,7.92v13.63c0,4.38-3.07,7.92-6.86,7.92H280.59Z" style="fill: rgb(188, 63, 84); transform-origin: 291.815px 337.735px;" id="elltd1rohv2q" class="animable"></path><g id="elyd4twebfjn"><g style="opacity: 0.1; transform-origin: 291.815px 337.735px;" class="animable"><path d="M280.59,323h15.59c3.79,0,6.86,3.55,6.86,7.92v13.63c0,4.38-3.07,7.92-6.86,7.92H280.59Z" id="elnurvumbby5" class="animable" style="transform-origin: 291.815px 337.735px;"></path></g></g><g id="eliso4h64271"><rect x="198.18" y="322.96" width="88.74" height="29.47" rx="5.42" style="fill: rgb(188, 63, 84); transform-origin: 242.55px 337.695px; transform: rotate(180deg);" class="animable"></rect></g><path d="M378.8,305.86a22.1,22.1,0,0,1-18.33,21.79l-4,53.15c-.35,4.52-3.62,8-7.55,8H306.11c3.93,0,7.2-3.46,7.55-8l2.15-28.37,1.87-24.78A22.05,22.05,0,0,0,333.54,316c.21-.38.39-.79.57-1.2a21.77,21.77,0,0,0,1.9-9,22.23,22.23,0,0,0-.46-4.5c-.12-.6-.27-1.19-.43-1.76a22.55,22.55,0,0,0-3.67-7.19h0a22.14,22.14,0,0,0-7.65-6.3,21.84,21.84,0,0,0-9.87-2.33h42.79a21.76,21.76,0,0,1,9.87,2.33,22.14,22.14,0,0,1,7.65,6.3h0A22,22,0,0,1,378.8,305.86Z" style="fill: rgb(188, 63, 84); transform-origin: 342.455px 336.26px;" id="el332t7lulfnx" class="animable"></path><g id="el1irwdxemkeh"><path d="M378.8,305.86a22.1,22.1,0,0,1-18.33,21.79l-4,53.15c-.35,4.52-3.62,8-7.55,8H306.11c3.93,0,7.2-3.46,7.55-8l2.15-28.37,1.87-24.78A22.05,22.05,0,0,0,333.54,316c.21-.38.39-.79.57-1.2a21.77,21.77,0,0,0,1.9-9,22.23,22.23,0,0,0-.46-4.5c-.12-.6-.27-1.19-.43-1.76a22.55,22.55,0,0,0-3.67-7.19h0a22.14,22.14,0,0,0-7.65-6.3,21.84,21.84,0,0,0-9.87-2.33h42.79a21.76,21.76,0,0,1,9.87,2.33,22.14,22.14,0,0,1,7.65,6.3h0A22,22,0,0,1,378.8,305.86Z" style="opacity: 0.1; transform-origin: 342.455px 336.26px;" class="animable"></path></g><path d="M336,305.87a22.12,22.12,0,0,1-18.34,21.78l-4,53.15c-.34,4.52-3.62,8-7.56,8h-126c-3.93,0-7.2-3.47-7.56-8l-4-53.24a22.09,22.09,0,0,1-5.69-41.46,21.86,21.86,0,0,1,9.88-2.34,22.09,22.09,0,0,1,21.09,15.54,1.81,1.81,0,0,1,.13.47,22.29,22.29,0,0,1,.57,3.52l.28,3.7h0l3.43,45.43H288l3.71-49.14c.54-6.93,4.27-12.72,9.44-15.46a21.85,21.85,0,0,1,11.44-4c.44,0,.88-.05,1.32-.05a21.65,21.65,0,0,1,9.61,2.22c.09,0,.18.08.27.12a22,22,0,0,1,7.65,6.3h0A22,22,0,0,1,336,305.87Z" style="fill: rgb(188, 63, 84); transform-origin: 243.31px 336.28px;" id="el0kclkf9th4ba" class="animable"></path><g id="elr57pdthf0a"><path d="M273.53,323c-9.85,2.33-20.09,5.61-25.59,13.93-3.05,4.6-4.13,10-4.67,15.54-.37,3.63-.51,7.34-.81,10.94-.77,9.09-3.79,19.32-12.1,23.07-5.67,2.56-12.23,1.33-18.45,1.64a21.74,21.74,0,0,0-4.53.7H180.07c-3.94,0-7.21-3.46-7.56-8l-4-53.23a22.09,22.09,0,1,1,25.29-28.27,2.6,2.6,0,0,1,.12.46,21.43,21.43,0,0,1,.57,3.54l.28,3.69v0l3.44,45.42h5.61a5.67,5.67,0,0,1-5.6-5.69V328.66a5.69,5.69,0,0,1,5.68-5.7Z" style="opacity: 0.1; transform-origin: 212.077px 336.317px;" class="animable"></path></g><path d="M342.06,405.35h1.46a1.66,1.66,0,0,0,1.55-1.48l2.14-15.09h-8.85l2.15,15.09A1.66,1.66,0,0,0,342.06,405.35Z" style="fill: rgb(188, 63, 84); transform-origin: 342.785px 397.065px;" id="elorteuei9m2" class="animable"></path><g id="elf4tj7gzh96g"><path d="M342.06,405.35h1.46a1.66,1.66,0,0,0,1.55-1.48l2.14-15.09h-8.85l2.15,15.09A1.66,1.66,0,0,0,342.06,405.35Z" style="fill: rgb(255, 255, 255); opacity: 0.7; transform-origin: 342.785px 397.065px;" class="animable"></path></g><path d="M185.46,405.35h1.46a1.66,1.66,0,0,0,1.55-1.48l2.15-15.09h-8.85l2.14,15.09A1.66,1.66,0,0,0,185.46,405.35Z" style="fill: rgb(188, 63, 84); transform-origin: 186.195px 397.065px;" id="elo6c8adcg269" class="animable"></path><g id="el9n50brr56n"><path d="M185.46,405.35h1.46a1.66,1.66,0,0,0,1.55-1.48l2.15-15.09h-8.85l2.14,15.09A1.66,1.66,0,0,0,185.46,405.35Z" style="fill: rgb(255, 255, 255); opacity: 0.5; transform-origin: 186.195px 397.065px;" class="animable"></path></g><path d="M230.73,405.35h1.45a1.66,1.66,0,0,0,1.56-1.48l2.14-15.09H227l2.15,15.09A1.66,1.66,0,0,0,230.73,405.35Z" style="fill: rgb(188, 63, 84); transform-origin: 231.44px 397.065px;" id="elwrvz2x253ph" class="animable"></path><g id="elwf7be4zxvr"><path d="M230.73,405.35h1.45a1.66,1.66,0,0,0,1.56-1.48l2.14-15.09H227l2.15,15.09A1.66,1.66,0,0,0,230.73,405.35Z" style="fill: rgb(255, 255, 255); opacity: 0.7; transform-origin: 231.44px 397.065px;" class="animable"></path></g><path d="M297.88,405.35h1.46a1.66,1.66,0,0,0,1.55-1.48L303,388.78h-8.85l2.14,15.09A1.66,1.66,0,0,0,297.88,405.35Z" style="fill: rgb(188, 63, 84); transform-origin: 298.575px 397.065px;" id="elz7mibdiixq" class="animable"></path><g id="elvwfgov3xohf"><path d="M297.88,405.35h1.46a1.66,1.66,0,0,0,1.55-1.48L303,388.78h-8.85l2.14,15.09A1.66,1.66,0,0,0,297.88,405.35Z" style="fill: rgb(255, 255, 255); opacity: 0.5; transform-origin: 298.575px 397.065px;" class="animable"></path></g><rect x="335.97" y="221.71" width="6.42" height="1" style="fill: rgb(188, 63, 84); transform-origin: 339.18px 222.21px;" id="ell28vnswkf1i" class="animable"></rect><rect x="303.82" y="221.71" width="25.13" height="1" style="fill: rgb(188, 63, 84); transform-origin: 316.385px 222.21px;" id="ellnvaqq8a2x8" class="animable"></rect></g><g id="freepik--walking-stick--inject-38" class="animable" style="transform-origin: 294.394px 347.257px;"><g id="elogr056u5d5q"><g style="opacity: 0.2; transform-origin: 303.728px 338.999px;" class="animable"><path d="M318.78,297.41a24.71,24.71,0,0,0-1.82-3.25,11.33,11.33,0,0,0-1.94-2.24,10.25,10.25,0,0,0-5.39-2.6,9.85,9.85,0,0,0-5,.54c-4.17,1.57-7.1,5.83-7.84,10.32a.34.34,0,0,0,0,.1l-8.26,88.51h3l8.23-88.18c.79-4.66,4.53-9,9.45-8.32a7.82,7.82,0,0,1,5.27,3.53,20.78,20.78,0,0,1,1.34,2.32l-.44,1.36a1.5,1.5,0,0,0,2.86.93l.62-1.93A1.52,1.52,0,0,0,318.78,297.41Z" style="fill: rgb(38, 50, 56); transform-origin: 303.728px 338.999px;" id="elykxz4d7zz5" class="animable"></path></g></g><path d="M269.8,413.22a1.47,1.47,0,0,1-.36,0,1.5,1.5,0,0,1-1.1-1.82l30.13-120.77,0-.1a13.4,13.4,0,0,1,8.58-8.85c2.44-.7,6.19-.82,10.28,2.59l.08.07a10,10,0,0,1,2.82,9.5L318.81,300a1.51,1.51,0,1,1-2.93-.69l1.46-6.19a7,7,0,0,0-1.94-6.61c-2.42-2-5-2.69-7.49-2a10.45,10.45,0,0,0-6.54,6.84L271.25,412.09A1.49,1.49,0,0,1,269.8,413.22Z" style="fill: rgb(38, 50, 56); transform-origin: 294.394px 347.257px;" id="elvy49pgnlsw" class="animable"></path></g><g id="freepik--Character--inject-38" class="animable" style="transform-origin: 221.677px 292.305px;"><path d="M257.23,319.26l-40.43,1.62-14.54,2.29c-3.18,22.89-18.3,57.77-19.81,61.23l0,0c0,.05,0,.1-.06.13h0l-.73,2.28L172.51,385l.38-2.07v0q0-.09,0-.39c.5-5.56,5.7-63.25,12.23-75.88,6.86-13.28,66.74-12.42,66.74-12.42C271.31,298.8,257.23,319.26,257.23,319.26Z" style="fill: rgb(255, 179, 115); transform-origin: 217.333px 340.519px;" id="el72kjxwzykri" class="animable"></path><path d="M179.43,396.35a25.85,25.85,0,0,1,.22,3.51c0,1.21-.24,2.65-1.34,3.17a2.66,2.66,0,0,1-2.58-.46c-.75-.53-1.35-1.25-2.11-1.77-2-1.36-4.58-1.16-7-1.34a19.21,19.21,0,0,1-3.2-.51,4.13,4.13,0,0,1-1.41-.56c-1.19-.83-1.34-2.5-1.37-3.95a18.41,18.41,0,0,0,7,0,9,9,0,0,0,3.2-1,1,1,0,0,1,.16-.1l1.5-8.3,9.13,1.85-2.57,8A5.82,5.82,0,0,1,179.43,396.35Z" style="fill: rgb(255, 179, 115); transform-origin: 171.135px 394.111px;" id="eluxtaax2gkrq" class="animable"></path><path d="M179.43,396.35a25.85,25.85,0,0,1,.22,3.51c0,1.21-.24,2.65-1.34,3.17a2.66,2.66,0,0,1-2.58-.46c-.75-.53-1.35-1.25-2.11-1.77-2-1.36-4.58-1.16-7-1.34a19.21,19.21,0,0,1-3.2-.51,4.13,4.13,0,0,1-1.41-.56c-1.19-.83-1.34-2.5-1.37-3.95a18.41,18.41,0,0,0,7,0,9,9,0,0,0,3.2-1,1,1,0,0,1,.16-.1l1.5-8.3,9.13,1.85-2.57,8A5.82,5.82,0,0,1,179.43,396.35Z" style="fill: rgb(188, 63, 84); transform-origin: 171.135px 394.111px;" id="el6cn0czvbotv" class="animable"></path><g id="el9ur73koyao"><g style="opacity: 0.8; transform-origin: 171.135px 394.111px;" class="animable"><path d="M179.43,396.35a25.85,25.85,0,0,1,.22,3.51c0,1.21-.24,2.65-1.34,3.17a2.66,2.66,0,0,1-2.58-.46c-.75-.53-1.35-1.25-2.11-1.77-2-1.36-4.58-1.16-7-1.34a19.21,19.21,0,0,1-3.2-.51,4.13,4.13,0,0,1-1.41-.56c-1.19-.83-1.34-2.5-1.37-3.95a18.41,18.41,0,0,0,7,0,9,9,0,0,0,3.2-1,1,1,0,0,1,.16-.1l1.5-8.3,9.13,1.85-2.57,8A5.82,5.82,0,0,1,179.43,396.35Z" style="fill: rgb(255, 179, 115); transform-origin: 171.135px 394.111px;" id="elt9gsmm4a4gj" class="animable"></path><path d="M179.43,396.35a25.85,25.85,0,0,1,.22,3.51c0,1.21-.24,2.65-1.34,3.17a2.66,2.66,0,0,1-2.58-.46c-.75-.53-1.35-1.25-2.11-1.77-2-1.36-4.58-1.16-7-1.34a19.21,19.21,0,0,1-3.2-.51,4.13,4.13,0,0,1-1.41-.56c-1.19-.83-1.34-2.5-1.37-3.95a18.41,18.41,0,0,0,7,0,9,9,0,0,0,3.2-1,1,1,0,0,1,.16-.1l1.5-8.3,9.13,1.85-2.57,8A5.82,5.82,0,0,1,179.43,396.35Z" style="fill: rgb(188, 63, 84); transform-origin: 171.135px 394.111px;" id="elienbfdr2ifd" class="animable"></path></g></g><g id="elaut3hahezfm"><g style="opacity: 0.8; transform-origin: 171.135px 394.111px;" class="animable"><path d="M179.43,396.35a25.85,25.85,0,0,1,.22,3.51c0,1.21-.24,2.65-1.34,3.17a2.66,2.66,0,0,1-2.58-.46c-.75-.53-1.35-1.25-2.11-1.77-2-1.36-4.58-1.16-7-1.34a19.21,19.21,0,0,1-3.2-.51,4.13,4.13,0,0,1-1.41-.56c-1.19-.83-1.34-2.5-1.37-3.95a18.41,18.41,0,0,0,7,0,9,9,0,0,0,3.2-1,1,1,0,0,1,.16-.1l1.5-8.3,9.13,1.85-2.57,8A5.82,5.82,0,0,1,179.43,396.35Z" style="fill: rgb(255, 255, 255); transform-origin: 171.135px 394.111px;" id="elsuca6art0np" class="animable"></path><path d="M179.43,396.35a25.85,25.85,0,0,1,.22,3.51c0,1.21-.24,2.65-1.34,3.17a2.66,2.66,0,0,1-2.58-.46c-.75-.53-1.35-1.25-2.11-1.77-2-1.36-4.58-1.16-7-1.34a19.21,19.21,0,0,1-3.2-.51,4.13,4.13,0,0,1-1.41-.56c-1.19-.83-1.34-2.5-1.37-3.95a18.41,18.41,0,0,0,7,0,9,9,0,0,0,3.2-1,1,1,0,0,1,.16-.1l1.5-8.3,9.13,1.85-2.57,8A5.82,5.82,0,0,1,179.43,396.35Z" style="fill: rgb(255, 255, 255); transform-origin: 171.135px 394.111px;" id="el0wa93h2uy8bi" class="animable"></path><g id="elf12h0s5fue"><g style="opacity: 0.8; transform-origin: 171.135px 394.111px;" class="animable"><path d="M179.43,396.35a25.85,25.85,0,0,1,.22,3.51c0,1.21-.24,2.65-1.34,3.17a2.66,2.66,0,0,1-2.58-.46c-.75-.53-1.35-1.25-2.11-1.77-2-1.36-4.58-1.16-7-1.34a19.21,19.21,0,0,1-3.2-.51,4.13,4.13,0,0,1-1.41-.56c-1.19-.83-1.34-2.5-1.37-3.95a18.41,18.41,0,0,0,7,0,9,9,0,0,0,3.2-1,1,1,0,0,1,.16-.1l1.5-8.3,9.13,1.85-2.57,8A5.82,5.82,0,0,1,179.43,396.35Z" style="fill: rgb(255, 255, 255); transform-origin: 171.135px 394.111px;" id="elvx6rwvffup" class="animable"></path><path d="M179.43,396.35a25.85,25.85,0,0,1,.22,3.51c0,1.21-.24,2.65-1.34,3.17a2.66,2.66,0,0,1-2.58-.46c-.75-.53-1.35-1.25-2.11-1.77-2-1.36-4.58-1.16-7-1.34a19.21,19.21,0,0,1-3.2-.51,4.13,4.13,0,0,1-1.41-.56c-1.19-.83-1.34-2.5-1.37-3.95a18.41,18.41,0,0,0,7,0,9,9,0,0,0,3.2-1,1,1,0,0,1,.16-.1l1.5-8.3,9.13,1.85-2.57,8A5.82,5.82,0,0,1,179.43,396.35Z" style="fill: rgb(255, 255, 255); transform-origin: 171.135px 394.111px;" id="elqlq5rzov6no" class="animable"></path></g></g></g></g><polygon points="182.96 382.74 182.45 384.4 182.43 384.44 181.68 386.87 181.64 386.86 172.51 385.01 172.32 384.97 172.92 382.51 173.43 380.44 182.96 382.74" style="fill: rgb(188, 63, 84); transform-origin: 177.64px 383.655px;" id="elzwozhrwbqss" class="animable"></polygon><g id="eldp95fio6ew"><polygon points="182.96 382.74 182.45 384.4 182.43 384.44 181.68 386.87 181.64 386.86 172.51 385.01 172.32 384.97 172.92 382.51 173.43 380.44 182.96 382.74" style="fill: rgb(255, 255, 255); opacity: 0.5; transform-origin: 177.64px 383.655px;" class="animable"></polygon></g><path d="M270.93,324.06c-1.05.18-2.19.33-3.4.44l-.35,0-1.79.14h-.16c-16.21,1-42.17-2.42-42.17-2.42s-.47,4.48-1.38,13a338.9,338.9,0,0,1-9.59,51.63c-.23.83-.45,1.67-.68,2.5l-.39,1.67-.85,3.58-10.19-2,0-1.24-.05-1.79,0-.63c0-1.56-.08-3.25-.12-5-.3-13.8-.47-34,.48-50.35.72-12.3,2.07-22.45,4.47-26.1,6.33-9.62,30.3-12.47,47.46-13.24,10.39-.47,18.28-.18,18.28-.18l8.94-2.92S285.71,321.52,270.93,324.06Z" style="fill: rgb(248, 176, 123); transform-origin: 240.167px 342.875px;" id="elmdog31xoov" class="animable"></path><polygon points="211.02 391.06 210.17 394.64 199.98 392.68 199.94 391.44 199.89 389.65 199.87 389.02 199.87 388.85 211.02 391.06" style="fill: rgb(188, 63, 84); transform-origin: 205.445px 391.745px;" id="elmsn9u1cwlp8" class="animable"></polygon><g id="elkgwdojk4hod"><polygon points="211.02 391.06 210.17 394.64 199.98 392.68 199.94 391.44 199.89 389.65 199.87 389.02 199.87 388.85 211.02 391.06" style="fill: rgb(255, 255, 255); opacity: 0.5; transform-origin: 205.445px 391.745px;" class="animable"></polygon></g><path d="M209.84,405.24A4.86,4.86,0,0,1,210,408c-2.72-.3-4-.83-7.8-1a6.08,6.08,0,0,1-3.57-.91,9.49,9.49,0,0,1-2.14-3.08l0,0a8.05,8.05,0,0,0,2.56-1.76,5.47,5.47,0,0,1,1.24-1.18c0-.48-.25-7.35-.25-7.35l10.19,2-.72,3.06,0,.08-.84,3.91h0s0,0,0,0A25.66,25.66,0,0,1,209.84,405.24Z" style="fill: rgb(255, 179, 115); transform-origin: 203.36px 400.36px;" id="eltqqupqcse6" class="animable"></path><path d="M209.84,405.24A4.86,4.86,0,0,1,210,408c-2.72-.3-4-.83-7.8-1a6.08,6.08,0,0,1-3.57-.91,9.49,9.49,0,0,1-2.14-3.08l0,0a8.05,8.05,0,0,0,2.56-1.76,5.47,5.47,0,0,1,1.24-1.18c0-.48-.25-7.35-.25-7.35l10.19,2-.72,3.06,0,.08-.84,3.91h0s0,0,0,0A25.66,25.66,0,0,1,209.84,405.24Z" style="fill: rgb(188, 63, 84); transform-origin: 203.36px 400.36px;" id="elg6lxgdaeko5" class="animable"></path><g id="elvqk2rcu4uh"><path d="M209.84,405.24A4.86,4.86,0,0,1,210,408c-2.72-.3-4-.83-7.8-1a6.08,6.08,0,0,1-3.57-.91,9.49,9.49,0,0,1-2.14-3.08l0,0a8.05,8.05,0,0,0,2.56-1.76,5.47,5.47,0,0,1,1.24-1.18c0-.48-.25-7.35-.25-7.35l10.19,2-.72,3.06,0,.08-.84,3.91h0s0,0,0,0A25.66,25.66,0,0,1,209.84,405.24Z" style="fill: rgb(255, 255, 255); opacity: 0.8; transform-origin: 203.36px 400.36px;" class="animable"></path></g><path d="M247.3,230.74c-2,5.87-4.12,11.57-6.4,17.3s-4.63,11.39-7.3,17.11l-1.08,2.24a11.73,11.73,0,0,1-2.78,3.66,15.06,15.06,0,0,1-6.49,3.26,32.64,32.64,0,0,1-10.84.58,74.89,74.89,0,0,1-18.83-4.46l1.63-6.53,4.4.38c1.48.11,3,.13,4.42.24a82.23,82.23,0,0,0,8.6,0,26.12,26.12,0,0,0,7.33-1.28,3.42,3.42,0,0,0,1.55-.95c0-.08-.1,0-.1,0l.76-2c2.06-5.55,4.09-11.33,6.11-17s4.12-11.45,6.26-17.12Z" style="fill: rgb(255, 179, 115); transform-origin: 220.44px 250.635px;" id="elpzbp0v59v8a" class="animable"></path><path d="M229.51,229.8c-4.37,7.94-2.79,17.91-2.79,17.91l12,1.7s12.16-14.68,9.28-21.17C244.8,221,234.11,221.38,229.51,229.8Z" style="fill: rgb(188, 63, 84); transform-origin: 237.442px 236.267px;" id="eli8ym2gtuada" class="animable"></path><g id="elwurjuenuvi"><path d="M229.51,229.8c-4.37,7.94-2.79,17.91-2.79,17.91l12,1.7s12.16-14.68,9.28-21.17C244.8,221,234.11,221.38,229.51,229.8Z" style="opacity: 0.6; transform-origin: 237.442px 236.267px;" class="animable"></path></g><g id="elp3hvfq4olah"><rect x="230.22" y="243.9" width="1.07" height="3.69" style="fill: rgb(255, 255, 255); transform-origin: 230.755px 245.745px; transform: rotate(-81.7deg);" class="animable"></rect></g><g id="elxz6ypjoi41"><path d="M238.73,249.41l-7.64-1.08A68.66,68.66,0,0,1,237.15,233c4-6.92,7-9.11,10.7-7.45C249.64,234.66,238.73,249.41,238.73,249.41Z" style="opacity: 0.2; isolation: isolate; transform-origin: 239.569px 237.216px;" class="animable"></path></g><path d="M185.9,270.06a6,6,0,0,1-2.23-.79c-2.44-2-1.36-5.65.62-8.09h0c.08-.1,2.32-2.48,2.41-2.58,2.15-2.28,3.6-.11,5.88,2l4.56,4.3-2.19,5.7a33.62,33.62,0,0,1-7.16-.26c-.44-.07-1.16-.18-1.89-.33Z" style="fill: rgb(255, 179, 115); transform-origin: 189.702px 264.156px;" id="elgc07qy8gq4g" class="animable"></path><path d="M269.54,219.78c1.23,0,13.64,2.11,11.41,13.87-9.5,46.19-3.28,35.46,3.77,56.35l-48.17,2.6s3.8-23.13,1.29-28.74c-4.25-9.46-4.36-16.56-1.48-26.56,3.19-11,4.51-14.06,4.51-14.06C245.29,221.91,260.09,217,269.54,219.78Z" style="fill: rgb(188, 63, 84); transform-origin: 259.556px 255.771px;" id="elhjrkgqhd3bj" class="animable"></path><g id="elth21joi1se"><path d="M269.54,219.78c1.23,0,13.64,2.11,11.41,13.87-9.5,46.19-3.28,35.46,3.77,56.35l-48.17,2.6s3.8-23.13,1.29-28.74c-4.25-9.46-4.36-16.56-1.48-26.56,3.19-11,4.51-14.06,4.51-14.06C245.29,221.91,260.09,217,269.54,219.78Z" style="opacity: 0.5; transform-origin: 259.556px 255.771px;" class="animable"></path></g><path d="M257.46,203.34c-.36,5.5-.39,13.48,3.83,16.58a51.44,51.44,0,0,0-12,12.85,1.56,1.56,0,0,1-2.17.43,1.52,1.52,0,0,1-.39-.37c-5.13-7-2.15-10.74-2.15-10.74,3.46-1,2.81-4.13,1.25-8.17Z" style="fill: rgb(255, 179, 115); transform-origin: 252.505px 218.403px;" id="el6rpnkbu6n3" class="animable"></path><g id="el8w6w08nd1vf"><path d="M254.36,207.79l-6.56,4.32-2,1.81a13.22,13.22,0,0,1,1.29,5.32C251.46,217.65,256.16,211.35,254.36,207.79Z" style="opacity: 0.2; isolation: isolate; transform-origin: 250.277px 213.515px;" class="animable"></path></g><path d="M256.39,190.58c2.06,8.84,3.13,12.57.07,18.26-4.59,8.67-15.89,9.27-20.54,1.23-4.16-7.24-6.92-20.46.59-26.46a12.38,12.38,0,0,1,19.88,7Z" style="fill: rgb(255, 179, 115); transform-origin: 245.085px 198.299px;" id="el9mog0c9bik" class="animable"></path><path d="M242.68,208.11a6.27,6.27,0,0,1-1.14.1.21.21,0,0,1-.23-.2h0a.23.23,0,0,1,.23-.23,6.13,6.13,0,0,0,4.93-2.49.23.23,0,0,1,.31-.07.23.23,0,0,1,.07.31A6.29,6.29,0,0,1,242.68,208.11Z" style="fill: rgb(38, 50, 56); transform-origin: 244.096px 206.699px;" id="ela21p9fvtaw4" class="animable"></path><g id="elzbma5m2xd5d"><path d="M245.52,196.4a6.9,6.9,0,0,0,3.62-1.31A13.42,13.42,0,0,0,245.52,196.4Z" style="opacity: 0.2; isolation: isolate; transform-origin: 247.33px 195.745px;" class="animable"></path></g><g id="elsr4cychpcd"><path d="M245.61,202.79c.81.75,2.48.94,3.46,3.2A20.16,20.16,0,0,0,245.61,202.79Z" style="opacity: 0.2; isolation: isolate; transform-origin: 247.34px 204.39px;" class="animable"></path></g><g id="el1a5uix6ow9i"><path d="M245.25,195.78a5,5,0,0,0,2.87-1.7A9.48,9.48,0,0,0,245.25,195.78Z" style="opacity: 0.2; isolation: isolate; transform-origin: 246.685px 194.93px;" class="animable"></path></g><path d="M243.24,197c.21.71,0,1.39-.46,1.53s-1-.32-1.21-1,0-1.38.45-1.53S243,196.32,243.24,197Z" style="fill: rgb(38, 50, 56); transform-origin: 242.405px 197.264px;" id="el8jh6fyjxo98" class="animable"></path><path d="M235.25,199.41c.22.7,0,1.4-.45,1.53s-1-.32-1.22-1,0-1.39.45-1.53S235,198.7,235.25,199.41Z" style="fill: rgb(38, 50, 56); transform-origin: 234.415px 199.673px;" id="elpiwhhhlltin" class="animable"></path><path d="M234.25,198.3l-1.83,0S233.68,199.39,234.25,198.3Z" style="fill: rgb(38, 50, 56); transform-origin: 233.335px 198.542px;" id="el4kwf67hekiu" class="animable"></path><path d="M238.09,200a19.73,19.73,0,0,1-1.16,5.26,3.19,3.19,0,0,0,2.66-.28Z" style="fill: rgb(234, 87, 63); transform-origin: 238.26px 202.715px;" id="elxlvbebtm4eb" class="animable"></path><path d="M260.71,196.81a6.61,6.61,0,0,1-2.35,4.49c-1.78,1.49-3.64.11-3.91-2.07-.26-2,.35-5.1,2.52-5.74a3,3,0,0,1,3.74,3.32Z" style="fill: rgb(255, 179, 115); transform-origin: 257.567px 197.656px;" id="elaor6wqykwr" class="animable"></path><path d="M243.84,191.78a.44.44,0,0,1-.51,0c-1.73-1-4.09,0-4.11,0a.43.43,0,0,1-.57-.21.44.44,0,0,1,.21-.58c.12,0,2.8-1.23,4.91,0a.43.43,0,0,1,.15.59A.5.5,0,0,1,243.84,191.78Z" style="fill: rgb(38, 50, 56); transform-origin: 241.295px 191.152px;" id="elox00sbmiz4f" class="animable"></path><g id="elo2ne2nomwv"><path d="M243.84,191.78a.44.44,0,0,1-.51,0c-1.73-1-4.09,0-4.11,0a.43.43,0,0,1-.57-.21.44.44,0,0,1,.21-.58c.12,0,2.8-1.23,4.91,0a.43.43,0,0,1,.15.59A.5.5,0,0,1,243.84,191.78Z" style="fill: rgb(255, 255, 255); opacity: 0.8; transform-origin: 241.295px 191.152px;" class="animable"></path></g><path d="M234.53,193.45a.43.43,0,0,0-.41-.72,4.3,4.3,0,0,0-3,2.53.42.42,0,0,0,.27.55.43.43,0,0,0,.55-.26,3.45,3.45,0,0,1,2.43-2A.47.47,0,0,0,234.53,193.45Z" style="fill: rgb(38, 50, 56); transform-origin: 232.874px 194.276px;" id="elc8d8k38ym3" class="animable"></path><g id="eltwof8rwyee9"><path d="M234.53,193.45a.43.43,0,0,0-.41-.72,4.3,4.3,0,0,0-3,2.53.42.42,0,0,0,.27.55.43.43,0,0,0,.55-.26,3.45,3.45,0,0,1,2.43-2A.47.47,0,0,0,234.53,193.45Z" style="fill: rgb(255, 255, 255); opacity: 0.8; transform-origin: 232.874px 194.276px;" class="animable"></path></g><path d="M242.24,196.17l-1.83,0S241.65,197.26,242.24,196.17Z" style="fill: rgb(38, 50, 56); transform-origin: 241.325px 196.412px;" id="elk0wqzex8y59" class="animable"></path><g id="eloqv6lge5s2k"><path d="M270.06,254.92c.25-5.77,8.19-28.13,6.12-30.65-1.52-.67-8.72-3-12.13,1.37C257,246.07,270.06,254.92,270.06,254.92Z" style="opacity: 0.2; isolation: isolate; transform-origin: 269.243px 238.984px;" class="animable"></path></g><path d="M205.76,295.66c-6.93,1-13.89,3.31-19,8-5.74,5.26-8.66,12.87-11,20.29a237,237,0,0,0-10.18,51.2c9.1,1.15,18.31,2.34,26.86,5.65,4.69,1.81,9.17,4.26,14.06,5.43s10.49.88,14.36-2.34c4.41-3.67,5.39-9.95,6.06-15.65q1.6-13.5,3.2-27c.51-4.31,1.23-9,4.52-11.87,2.75-2.38,6.62-2.81,10.24-3.14,7.31-.67,20.58-1.56,27.89-2.23,7-.63,24.42-8.29,14.8-27.42-1.73-3.45-2.52-7.83-6.05-9.39-2.21-1-4.73-.72-7.13-.46l-26.73,3c-3.6.41-7.35.46-10.73,1.78C233.28,293,212.69,294.68,205.76,295.66Z" style="fill: rgb(38, 50, 56); transform-origin: 227.99px 336.672px;" id="el9cheiwytlyh" class="animable"></path><path d="M210.23,248.58s1.31-5.07,1.76-7a20.52,20.52,0,0,0,.51-3.27l26.86,31s-1.18,7.52-3,9.5Z" style="fill: rgb(188, 63, 84); transform-origin: 224.795px 258.56px;" id="elvurio44fjl" class="animable"></path><g id="elhoig6iwlnla"><g style="opacity: 0.8; transform-origin: 224.795px 258.56px;" class="animable"><path d="M210.23,248.58s1.31-5.07,1.76-7a20.52,20.52,0,0,0,.51-3.27l26.86,31s-1.18,7.52-3,9.5Z" style="fill: rgb(255, 255, 255); transform-origin: 224.795px 258.56px;" id="elwxjlu32gv4" class="animable"></path></g></g><path d="M210.23,248.58s4.56-7.89,6.24-10.93a48,48,0,0,0,2.43-4.91l26.86,31s-5.58,11.33-9.37,15Z" style="fill: rgb(188, 63, 84); transform-origin: 227.995px 255.74px;" id="el59pd8igsqj4" class="animable"></path><g id="elozzf2arg4y"><g style="opacity: 0.9; transform-origin: 227.995px 255.74px;" class="animable"><path d="M210.23,248.58s4.56-7.89,6.24-10.93a48,48,0,0,0,2.43-4.91l26.86,31s-5.58,11.33-9.37,15Z" style="fill: rgb(255, 255, 255); transform-origin: 227.995px 255.74px;" id="elb56mwn8xmkm" class="animable"></path></g></g><g id="elnf3mnixcu4"><rect x="222.93" y="242.67" width="3.14" height="39.97" style="fill: rgb(188, 63, 84); transform-origin: 224.5px 262.655px; transform: rotate(-40.88deg);" class="animable"></rect></g><g id="ely71n2patty"><g style="opacity: 0.4; transform-origin: 224.5px 262.655px;" class="animable"><g id="elc2qe28fduqw"><rect x="222.93" y="242.67" width="3.14" height="39.97" class="animable" style="transform-origin: 224.5px 262.655px; transform: rotate(-40.88deg);"></rect></g></g></g><g id="elkmppvyay9ue"><rect x="223.13" y="234.79" width="20.96" height="39.97" style="fill: rgb(188, 63, 84); transform-origin: 233.61px 254.775px; transform: rotate(-40.88deg);" class="animable"></rect></g><path d="M243,265.29l.52.28-2.89,5.31c-.53.2-1.06.37-1.6.53-.46-.28-.91-.57-1.36-.87l3-6Z" style="fill: rgb(255, 179, 115); transform-origin: 240.595px 267.975px;" id="eljqwg042eyz" class="animable"></path><path d="M270.17,272.16l-.67-.51-.09-.06a2.64,2.64,0,0,0,.1-.3.07.07,0,0,0,0-.06l.07-.31.06-.29.31-.1,0,.22Z" style="fill: rgb(255, 179, 115); transform-origin: 269.79px 271.345px;" id="ela0lvkwmxoh8" class="animable"></path><path d="M280.48,271.8c-.09.46-.19.92-.31,1.4s-.24,1-.42,1.48c-1.09,8.92-10.91,7.11-10.91,7.11a18.86,18.86,0,0,1-3.68-.06,41.6,41.6,0,0,1-10.2-2.45,83.73,83.73,0,0,1-15.9-7.87c.54-.16,1.07-.33,1.6-.53l2.89-5.31-.52-.28,2,.63c1.43.45,2.88.84,4.3,1.26,2.86.81,5.71,1.55,8.51,2.11,2.63.58,6.72,1.65,9.39,1.68a8.16,8.16,0,0,0,2.41-.34l-.06.29-.07.31a.07.07,0,0,1,0,.06,2.64,2.64,0,0,1-.1.3l.09.06.67.51-.23-1.41,0-.22-.31.1c0-.16.06-.32.08-.48s-.16-29.85-.66-35.76l13.79-.25C283.54,240.49,281.1,268.45,280.48,271.8Z" style="fill: rgb(255, 179, 115); transform-origin: 261.013px 258.04px;" id="el09x89gz88j" class="animable"></path><path d="M270.17,272.16l-.67-.51-.09-.06a2.64,2.64,0,0,0,.1-.3.07.07,0,0,0,0-.06l.07-.31.06-.29.31-.1,0,.22Z" style="fill: rgb(255, 179, 115); transform-origin: 269.79px 271.345px;" id="ela7ymgyypvjo" class="animable"></path><path d="M243.55,265.57l-2.89,5.31c-.53.2-1.06.37-1.6.53a28.7,28.7,0,0,1-4.78,1,5.89,5.89,0,0,1-2.93-.41c-2.89-1.22-5.89-2.59-3-7.45,0-.06.22-.7.4-1.34s.36-1.27.39-1.33c1.43-2.8,4.23-1.61,7-.2l6.87,3.65Z" style="fill: rgb(255, 179, 115); transform-origin: 235.363px 266.314px;" id="elriwmqszumap" class="animable"></path><path d="M263.07,231.9c.94,10.83,4.45,9.28,6.47,15.31l13-1.84S286.8,237.3,285,230a11.85,11.85,0,0,0-17.83-6.94A8.88,8.88,0,0,0,263.07,231.9Z" style="fill: rgb(188, 63, 84); transform-origin: 274.209px 234.203px;" id="el2z5pyl9er9b" class="animable"></path><g id="elkyhii9alarb"><path d="M263.07,231.9c.94,10.83,4.45,9.28,6.47,15.31l13-1.84S286.8,237.3,285,230a11.85,11.85,0,0,0-17.83-6.94A8.88,8.88,0,0,0,263.07,231.9Z" style="opacity: 0.4; transform-origin: 274.209px 234.203px;" class="animable"></path></g><g id="elcysfw4aj8p"><rect x="270.47" y="242.5" width="3.69" height="1.07" style="fill: rgb(255, 255, 255); transform-origin: 272.315px 243.035px; transform: rotate(-9.87deg);" class="animable"></rect></g><g id="el9a68s2cme2j"><rect x="276.15" y="241.83" width="3.98" height="1.07" style="fill: rgb(255, 255, 255); transform-origin: 278.14px 242.365px; transform: rotate(-4.12deg);" class="animable"></rect></g><path d="M270.37,190.57a9.18,9.18,0,0,0,1-8.18c-1.58-3.76-5.93-5.38-9.82-6.6l-5.35-1.67c-1.3-.41-2.81-.79-4,0s-1.4,2.66-.78,4a11.53,11.53,0,0,0,2.87,3.37,41.5,41.5,0,0,1,7.58,10.46C264.62,196.71,268,194.5,270.37,190.57Z" style="fill: rgb(38, 50, 56); transform-origin: 261.494px 184.156px;" id="el0docm31r6sw6" class="animable"></path><g id="elvr7tss4dtvj"><path d="M270.37,190.57a9.18,9.18,0,0,0,1-8.18c-1.58-3.76-5.93-5.38-9.82-6.6l-5.35-1.67c-1.3-.41-2.81-.79-4,0s-1.4,2.66-.78,4a11.53,11.53,0,0,0,2.87,3.37,41.5,41.5,0,0,1,7.58,10.46C264.62,196.71,268,194.5,270.37,190.57Z" style="fill: rgb(255, 255, 255); opacity: 0.9; transform-origin: 261.494px 184.156px;" class="animable"></path></g><path d="M261.73,205.26a7.51,7.51,0,0,1-4.46,1.87,13.31,13.31,0,0,0,1.08-5.82h0a6.56,6.56,0,0,0,2.34-4.49,3,3,0,0,0-.07-1.23,3,3,0,0,0-2.69-2.18,2.57,2.57,0,0,0-.87.07l-.1,0c-1.83.54-2.55,2.85-2.58,4.74-1.8-1.33-2.56-4-3.9-6A9.77,9.77,0,0,0,245,188.4a10.54,10.54,0,0,0-2.79-.43,14.05,14.05,0,0,0-8.9,3.29,15.88,15.88,0,0,1-1.31,1,4,4,0,0,1-.8.39,2,2,0,0,1-2.28-.6,2.68,2.68,0,0,1,.19-2.42,24.18,24.18,0,0,1,12.08-12l0,0c.7-.32,1.41-.6,2.13-.85.48-.16.94-.3,1.37-.4l.13,0,.67-.13.45-.06c6.11-.83,13.44,1.53,16.24,6.54C265.8,189.13,267.47,200.62,261.73,205.26Z" style="fill: rgb(38, 50, 56); transform-origin: 247.098px 191.578px;" id="elkmn4twlvtz" class="animable"></path><g id="elxu3dfb50vmk"><path d="M261.73,205.26a7.51,7.51,0,0,1-4.46,1.87,13.31,13.31,0,0,0,1.08-5.82h0a6.56,6.56,0,0,0,2.34-4.49,3,3,0,0,0-.07-1.23,3,3,0,0,0-2.69-2.18,2.57,2.57,0,0,0-.87.07l-.1,0c-1.83.54-2.55,2.85-2.58,4.74-1.8-1.33-2.56-4-3.9-6A9.77,9.77,0,0,0,245,188.4a10.54,10.54,0,0,0-2.79-.43,14.05,14.05,0,0,0-8.9,3.29,15.88,15.88,0,0,1-1.31,1,4,4,0,0,1-.8.39,2,2,0,0,1-2.28-.6,2.68,2.68,0,0,1,.19-2.42,24.18,24.18,0,0,1,12.08-12l0,0c.7-.32,1.41-.6,2.13-.85.48-.16.94-.3,1.37-.4l.13,0,.67-.13.45-.06c6.11-.83,13.44,1.53,16.24,6.54C265.8,189.13,267.47,200.62,261.73,205.26Z" style="fill: rgb(255, 255, 255); opacity: 0.8; transform-origin: 247.098px 191.578px;" class="animable"></path></g><path d="M233.51,197.52a2.2,2.2,0,0,0-2,3.58,7.19,7.19,0,0,0,1.36,1.34,3.18,3.18,0,0,0,2.19,1,2.11,2.11,0,0,0,1.44-1,6,6,0,0,0,.71-1.64,3.44,3.44,0,0,0,.24-1.22C237.35,198.16,234.66,197.52,233.51,197.52Z" style="fill: none; stroke: rgb(38, 50, 56); stroke-linecap: round; stroke-linejoin: round; stroke-width: 0.5px; transform-origin: 234.228px 200.469px;" id="elbh59qxpvt9i" class="animable"></path><path d="M242.66,194.45c1.2-.64,2.8-.71,3.49.18a2.22,2.22,0,0,1,.25,1.9,8.28,8.28,0,0,1-.88,2,4.4,4.4,0,0,1-1.93,2.15,2.5,2.5,0,0,1-2,0,5.23,5.23,0,0,1-1.46-1.08,3,3,0,0,1-.79-1C238.81,197.2,241.43,195.1,242.66,194.45Z" style="fill: none; stroke: rgb(38, 50, 56); stroke-linecap: round; stroke-linejoin: round; stroke-width: 0.5px; transform-origin: 242.89px 197.427px;" id="elblbu7m990jw" class="animable"></path><path d="M237.35,199.86a.37.37,0,0,1-.14,0,.26.26,0,0,1-.07-.35,1.94,1.94,0,0,1,2.76-.41.25.25,0,0,1,0,.35.24.24,0,0,1-.35,0,1.4,1.4,0,0,0-1.07-.26,1.36,1.36,0,0,0-.95.57A.26.26,0,0,1,237.35,199.86Z" style="fill: rgb(38, 50, 56); transform-origin: 238.536px 199.283px;" id="ellrqf4j18pzf" class="animable"></path><path d="M233.12,217.43a.25.25,0,0,1-.2-.13,5.13,5.13,0,0,1-.44-3.22l0-.39c.07-1,0-2.37-.95-2.95a3.22,3.22,0,0,0-1.38-.4,4.89,4.89,0,0,1-1.34-.34c-1.62-.75-2-3-1.45-4.66a17,17,0,0,1,.81-2,10.86,10.86,0,0,0,.94-2.58,11.23,11.23,0,0,0-.68-5.09c-.12-.4-.23-.81-.34-1.21-.52-2-.8-4.72.82-6.49a2.81,2.81,0,0,1,2.43-.61,4.27,4.27,0,0,1,3.24,2.67.27.27,0,0,1-.13.35.28.28,0,0,1-.36-.13,3.72,3.72,0,0,0-2.84-2.36,2.24,2.24,0,0,0-1.95.44c-1.46,1.59-1.18,4.13-.69,6,.1.4.22.8.33,1.21a8.81,8.81,0,0,1-.28,8,15,15,0,0,0-.79,2c-.44,1.49-.18,3.4,1.17,4a4.72,4.72,0,0,0,1.19.29,4,4,0,0,1,1.59.48c.9.58,1.3,1.74,1.19,3.43l0,.4a4.83,4.83,0,0,0,.36,2.9.27.27,0,0,1-.08.37A.38.38,0,0,1,233.12,217.43Z" style="fill: rgb(38, 50, 56); transform-origin: 230.863px 202.363px;" id="el0hm8pmf923dh" class="animable"></path><g id="el8qf5xgkvomd"><g style="opacity: 0.9; transform-origin: 230.863px 202.363px;" class="animable"><g id="el0gqu4j6dof0s"><path d="M233.12,217.43a.25.25,0,0,1-.2-.13,5.13,5.13,0,0,1-.44-3.22l0-.39c.07-1,0-2.37-.95-2.95a3.22,3.22,0,0,0-1.38-.4,4.89,4.89,0,0,1-1.34-.34c-1.62-.75-2-3-1.45-4.66a17,17,0,0,1,.81-2,10.86,10.86,0,0,0,.94-2.58,11.23,11.23,0,0,0-.68-5.09c-.12-.4-.23-.81-.34-1.21-.52-2-.8-4.72.82-6.49a2.81,2.81,0,0,1,2.43-.61,4.27,4.27,0,0,1,3.24,2.67.27.27,0,0,1-.13.35.28.28,0,0,1-.36-.13,3.72,3.72,0,0,0-2.84-2.36,2.24,2.24,0,0,0-1.95.44c-1.46,1.59-1.18,4.13-.69,6,.1.4.22.8.33,1.21a8.81,8.81,0,0,1-.28,8,15,15,0,0,0-.79,2c-.44,1.49-.18,3.4,1.17,4a4.72,4.72,0,0,0,1.19.29,4,4,0,0,1,1.59.48c.9.58,1.3,1.74,1.19,3.43l0,.4a4.83,4.83,0,0,0,.36,2.9.27.27,0,0,1-.08.37A.38.38,0,0,1,233.12,217.43Z" style="fill: rgb(255, 255, 255); opacity: 0.7; transform-origin: 230.863px 202.363px;" class="animable"></path></g></g></g><path d="M241.47,228c.36,3.19,2.14,6.53,5.22,7.4a7.6,7.6,0,0,0,6.41-1.5,23,23,0,0,0,4.57-5l4-5.36c1.11-1.51,2.28-3.18,2.22-5.05a4.29,4.29,0,0,0-2-3.42c-1.16-.73-2.61-1.33-3.86-.77a4.51,4.51,0,0,1-.56,3.86,7.38,7.38,0,0,1-2.76,2.18c-1.54.8-3.35,1.53-5,1A4.12,4.12,0,0,1,247,217.8c-1.86-1.28-2.72,1-3.51,2A11.72,11.72,0,0,0,241.47,228Z" style="fill: rgb(188, 63, 84); transform-origin: 252.634px 224.83px;" id="elsum7d35er18" class="animable"></path><path d="M270.17,272.16l-.67-.51,0-.73.4-.17Z" style="fill: rgb(255, 179, 115); transform-origin: 269.835px 271.455px;" id="elklsl69m27he" class="animable"></path><path d="M172,256l.43.79a2.81,2.81,0,0,1,.38,1.41v4.47c0,2.73,3,5,6.65,5h1a7.06,7.06,0,0,0,6-2.87,2.09,2.09,0,0,0,.84-.38l2.59-1.93a1.33,1.33,0,0,0,.6-1.07V259c0-.83-.92-1.51-2-1.51h-1.36c-.08-.16.07-.42.28-.68l0-.05a5.87,5.87,0,0,1,.7-.68l.06,0s-.12-.57-1.49-.28c-.39.08-.76.18-1.1.28l-.15,0h0l-.11,0a5.57,5.57,0,0,0-3.54-.06,5.6,5.6,0,0,0-3.27,0,1.25,1.25,0,0,1,.25.09h-.5l.25-.09a5.62,5.62,0,0,0-3.44.09h-.47c-.34-.1-.73-.2-1.12-.28C172.11,255.47,172,256,172,256Zm15,7.68c0-.05.06-3.58.07-5.08,0-.37.4-.66.9-.66h.57c.7,0,1.28.43,1.28,1v2.19c0,.73,0,.69-.73,1.22Z" style="fill: rgb(188, 63, 84); transform-origin: 181.245px 261.691px;" id="elzdgayxsgfz" class="animable"></path><g id="eled44ajb7fhv"><path d="M172,256l.43.79a2.81,2.81,0,0,1,.38,1.41v4.47c0,2.73,3,5,6.65,5h1a7.06,7.06,0,0,0,6-2.87,2.09,2.09,0,0,0,.84-.38l2.59-1.93a1.33,1.33,0,0,0,.6-1.07V259c0-.83-.92-1.51-2-1.51h-1.36c-.08-.16.07-.42.28-.68l0-.05a5.87,5.87,0,0,1,.7-.68l.06,0s-.12-.57-1.49-.28c-.39.08-.76.18-1.1.28l-.15,0h0l-.11,0a5.57,5.57,0,0,0-3.54-.06,5.6,5.6,0,0,0-3.27,0,1.25,1.25,0,0,1,.25.09h-.5l.25-.09a5.62,5.62,0,0,0-3.44.09h-.47c-.34-.1-.73-.2-1.12-.28C172.11,255.47,172,256,172,256Zm15,7.68c0-.05.06-3.58.07-5.08,0-.37.4-.66.9-.66h.57c.7,0,1.28.43,1.28,1v2.19c0,.73,0,.69-.73,1.22Z" style="fill: rgb(255, 255, 255); opacity: 0.5; transform-origin: 181.245px 261.691px;" class="animable"></path></g><path d="M173.94,241.68c.33,1.73,1.72,3,3.12,4.13a13.31,13.31,0,0,1,3.81,3.62c.87,1.54.78,3.81-.72,4.74a5.28,5.28,0,0,0,.5-9c-1.27-.89-2.93-1.22-4-2.37a4.65,4.65,0,0,1-.93-3.91,20.5,20.5,0,0,1,1.17-3.3C175,236.12,173.57,239.74,173.94,241.68Z" style="fill: rgb(255, 255, 255); transform-origin: 178.408px 244.88px;" id="elc8wkuau11zv" class="animable"></path><path d="M178.37,237a12.37,12.37,0,0,0,1.64-4.27c.18-1.52-1.62-4-1.62-4a6.43,6.43,0,0,1,1.49,9.46,12.12,12.12,0,0,1-2.69,2.37C176.93,239.35,177.79,238.12,178.37,237Z" style="fill: rgb(255, 255, 255); transform-origin: 179.234px 234.645px;" id="elubxshx6oto" class="animable"></path><path d="M171.66,399.32a5.69,5.69,0,0,1-3-1.74,8.93,8.93,0,0,1-1.14-3.35,7.33,7.33,0,0,0-.61-1.74c-4.19-1.24-12.7.13-12.7.13-1.73.33-2.15,5.05,1.86,6.17,6.65,1.86,5.38.68,11,2.34,4.78,1.41,8.14,2.65,12,3.86a1.06,1.06,0,0,0,.31.05,1.53,1.53,0,0,0,1.5-1.59v-.37C176.45,401.66,176.06,400.75,171.66,399.32Z" style="fill: rgb(38, 50, 56); transform-origin: 166.917px 398.505px;" id="elm3h4sjhc2y" class="animable"></path><path d="M210,408a2,2,0,0,1-.57.88,2.83,2.83,0,0,1-2.77.28c-.92-.32-1.74-.88-2.66-1.19-2.41-.82-5,.14-7.5.65a20.62,20.62,0,0,1-3.41.41,4.36,4.36,0,0,1-1.61-.16c-1.45-.5-2.08-2.16-2.54-3.63a19.46,19.46,0,0,0,7.12-2.05l.4-.2,0,0a9.49,9.49,0,0,0,2.14,3.08,6.08,6.08,0,0,0,3.57.91C206,407.15,207.25,407.68,210,408Z" style="fill: rgb(255, 179, 115); transform-origin: 199.47px 406.194px;" id="eli0gqu68tr9i" class="animable"></path><path d="M211.67,410.61a1.19,1.19,0,0,1-.33,0c-4.24-.12-8-.42-13.31-.47-6.23-.06-4.6.77-11.92.81-4.41,0-5.35-4.92-3.68-5.75,0,0,8.28-3.87,12.91-3.82a7.33,7.33,0,0,1,1.09,1.55l0,0a9.49,9.49,0,0,0,2.14,3.08,6.08,6.08,0,0,0,3.57.91c3.84.14,5.08.67,7.8,1,.75.09,1.61.16,2.67.2l.1.37A1.62,1.62,0,0,1,211.67,410.61Z" style="fill: rgb(38, 50, 56); transform-origin: 197.234px 406.165px;" id="elx0k4qstiu5c" class="animable"></path></g><defs>     <filter id="active" height="200%">         <feMorphology in="SourceAlpha" result="DILATED" operator="dilate" radius="2"></feMorphology>                <feFlood flood-color="#32DFEC" flood-opacity="1" result="PINK"></feFlood>        <feComposite in="PINK" in2="DILATED" operator="in" result="OUTLINE"></feComposite>        <feMerge>            <feMergeNode in="OUTLINE"></feMergeNode>            <feMergeNode in="SourceGraphic"></feMergeNode>        </feMerge>    </filter>    <filter id="hover" height="200%">        <feMorphology in="SourceAlpha" result="DILATED" operator="dilate" radius="2"></feMorphology>                <feFlood flood-color="#ff0000" flood-opacity="0.5" result="PINK"></feFlood>        <feComposite in="PINK" in2="DILATED" operator="in" result="OUTLINE"></feComposite>        <feMerge>            <feMergeNode in="OUTLINE"></feMergeNode>            <feMergeNode in="SourceGraphic"></feMergeNode>        </feMerge>            <feColorMatrix type="matrix" values="0   0   0   0   0                0   1   0   0   0                0   0   0   0   0                0   0   0   1   0 "></feColorMatrix>    </filter></defs></svg>