<svg class="animated" id="freepik_stories-grandma" xmlns="http://www.w3.org/2000/svg" viewBox="0 0 500 500" version="1.1" xmlns:xlink="http://www.w3.org/1999/xlink" xmlns:svgjs="http://svgjs.com/svgjs"><style>svg#freepik_stories-grandma:not(.animated) .animable {opacity: 0;}svg#freepik_stories-grandma.animated #freepik--Floor--inject-35 {animation: 1.5s Infinite  linear floating;animation-delay: 0s;}svg#freepik_stories-grandma.animated #freepik--Pictures--inject-35 {animation: 1.5s Infinite  linear floating;animation-delay: 0s;}svg#freepik_stories-grandma.animated #freepik--Character--inject-35 {animation: 1.5s Infinite  linear floating;animation-delay: 0s;}            @keyframes floating {                0% {                    opacity: 1;                    transform: translateY(0px);                }                50% {                    transform: translateY(-10px);                }                100% {                    opacity: 1;                    transform: translateY(0px);                }            }        .animator-hidden { display: none; }</style><g id="freepik--Floor--inject-35" class="animable" style="transform-origin: 249.306px 355.119px;"><path d="M404.49,264.93c-86.26-49.8-225.67-49.8-311.38,0s-85.25,130.56,1,180.37,225.68,49.81,311.39,0S490.76,314.74,404.49,264.93Z" style="fill: rgb(245, 245, 245); transform-origin: 249.306px 355.119px;" id="eltediisn015g" class="animable"></path></g><g id="freepik--Shadows--inject-35" class="animable" style="transform-origin: 245.043px 362.175px;"><path d="M136,328.82l53.75-31a2.38,2.38,0,0,0,0-4.12l-47.38-27.53a2.38,2.38,0,0,0-2.38,0L85.09,297.86a2.38,2.38,0,0,0,0,4.12l46.19,26.83A4.76,4.76,0,0,0,136,328.82Z" style="fill: rgb(230, 230, 230); transform-origin: 137.42px 297.646px;" id="el4tght53q3ke" class="animable"></path><path d="M401.51,321.58c-6.21-3.58-16.24-3.58-22.4,0s-6.13,9.39.07,13,16.23,3.58,22.4,0S407.71,325.17,401.51,321.58Z" style="fill: rgb(230, 230, 230); transform-origin: 390.347px 328.086px;" id="elvr7la0pdcr" class="animable"></path><path d="M362.56,362.85a4.6,4.6,0,0,0-2-2.38l-84.59-48.84a11.73,11.73,0,0,0-11.77,0l-93.05,54a4.7,4.7,0,0,0,0,8.14l40.67,23.48c-17.78-2.62-37.39.09-51.25,8.14-20.91,12.15-20.8,31.86.25,44s55.06,12.15,76,0c13.86-8.05,18.47-19.42,13.89-29.71l5.05,2.91a11.71,11.71,0,0,0,11.77,0l93-54A4.69,4.69,0,0,0,362.56,362.85Z" style="fill: rgb(230, 230, 230); transform-origin: 253.916px 384.273px;" id="elf3ts9cv045s" class="animable"></path></g><g id="freepik--Window--inject-35" class="animable animator-hidden" style="transform-origin: 364.445px 133.605px;"><polygon points="359.77 87.21 359.51 179.59 364.65 182.55 364.91 90.18 359.77 87.21" style="fill: rgb(224, 224, 224); transform-origin: 362.21px 134.88px;" id="el1j503jlzmwi" class="animable"></polygon><polygon points="364.92 90.18 364.91 90.18 364.65 182.55 369.12 179.96 369.37 92.75 364.92 90.18" style="fill: rgb(240, 240, 240); transform-origin: 367.01px 136.365px;" id="elgta0ki5skjr" class="animable"></polygon><g id="elk0w0j8duui"><rect x="362.34" y="85.72" height="5.94" style="fill: rgb(224, 224, 224); transform-origin: 362.34px 88.69px; transform: rotate(-60deg);" class="animable"></rect></g><g id="el7c9e1dqoz1y"><polygon points="364.9 94.32 364.91 90.18 359.77 87.21 359.76 91.36 364.9 94.32 364.9 94.32" style="opacity: 0.2; transform-origin: 362.335px 90.765px;" class="animable"></polygon></g><g id="elr68km4vstd"><polygon points="364.9 94.32 368.51 92.25 364.92 90.18 364.91 90.18 364.9 94.32" style="opacity: 0.2; transform-origin: 366.705px 92.25px;" class="animable"></polygon></g><g id="elivxd5pa79d"><rect x="362.34" y="85.72" height="5.94" style="fill: rgb(224, 224, 224); transform-origin: 362.34px 88.69px; transform: rotate(-60deg);" class="animable"></rect></g><polygon points="297.91 51.49 302.38 48.9 302.12 141.27 297.65 143.87 297.91 51.49" style="fill: rgb(240, 240, 240); transform-origin: 300.015px 96.385px;" id="el6qsckk073gs" class="animable"></polygon><polygon points="297.65 143.87 302.12 141.27 430.99 215.67 426.52 218.27 297.65 143.87" style="fill: rgb(245, 245, 245); transform-origin: 364.32px 179.77px;" id="elv9k65noac2o" class="animable"></polygon><path d="M292.79,42.62,431.94,123l-.3,104.19L292.49,146.81ZM426.52,218.27l.26-92.38L297.91,51.49l-.26,92.38,128.87,74.4" style="fill: rgb(224, 224, 224); transform-origin: 362.215px 134.905px;" id="elkdwi1j8t81" class="animable"></path><polygon points="292.79 42.62 297.26 40.02 436.4 120.36 431.94 122.95 292.79 42.62" style="fill: rgb(245, 245, 245); transform-origin: 364.595px 81.485px;" id="el4uuno4dwjkt" class="animable"></polygon><polygon points="431.94 122.95 436.4 120.36 436.11 224.55 431.64 227.14 431.94 122.95" style="fill: rgb(240, 240, 240); transform-origin: 434.02px 173.75px;" id="elahu3ad1jjb4" class="animable"></polygon></g><g id="freepik--Furniture--inject-35" class="animable" style="transform-origin: 137.53px 262.46px;"><g id="eld9ukbsxwfkq"><polygon points="189.53 228.56 140.97 200.34 85.35 232.45 85.53 296.36 134.09 324.58 138.99 321.76 138.97 316.32 180.12 292.56 184.82 295.3 189.71 292.47 189.53 228.56" style="fill: rgb(197, 63, 63); opacity: 0.8; transform-origin: 137.53px 262.46px;" class="animable"></polygon></g><polygon points="180.12 292.56 184.82 295.3 184.8 289.86 180.12 292.56" style="fill: rgb(230, 230, 230); transform-origin: 182.47px 292.58px;" id="el9ujsiq4rcil" class="animable"></polygon><polygon points="184.69 263.54 184.69 263.49 184.69 263.49 184.69 263.49 184.69 263.54" style="fill: rgb(120, 120, 120); transform-origin: 184.69px 263.515px;" id="elk8i2ys9t2ai" class="animable"></polygon><rect x="161.81" y="250.28" height="52.82" style="fill: rgb(207, 207, 207); transform-origin: 161.81px 276.69px;" id="elkg3gvhoon2b" class="animable"></rect><polygon points="184.61 237.08 138.87 263.49 138.87 263.49 184.61 237.08" style="fill: rgb(207, 207, 207); transform-origin: 161.74px 250.285px;" id="elecjz5nnkg4j" class="animable"></polygon><path d="M184.8,289.86l0,5.44,4.89-2.83-.18-63.91-55.62,32.11.18,63.91,4.9-2.82,0-5.44,41.14-23.76Zm-45.93-26.37h0l45.74-26.41.06,20.73-45.75,26.41Zm.07,26.41h0l45.75-26.42h0v.06l.06,20.67L139,310.62Z" style="fill: rgb(197, 63, 63); transform-origin: 161.79px 276.57px;" id="elkl0pg593szi" class="animable"></path><polygon points="184.75 284.21 184.69 263.54 184.69 263.49 138.94 289.9 138.94 289.9 139 310.62 184.75 284.21" style="fill: rgb(197, 63, 63); transform-origin: 161.845px 287.055px;" id="elxblki9l8lqh" class="animable"></polygon><polygon points="184.67 257.81 184.61 237.08 138.87 263.49 138.87 263.49 138.93 284.22 184.67 257.81" style="fill: rgb(197, 63, 63); transform-origin: 161.77px 260.65px;" id="el71l64xc520o" class="animable"></polygon><polygon points="133.91 260.67 85.35 232.45 85.53 296.36 134.09 324.58 133.91 260.67" style="fill: rgb(197, 63, 63); transform-origin: 109.72px 278.515px;" id="elodi0ra9r22n" class="animable"></polygon><polygon points="133.91 260.67 189.53 228.56 140.97 200.34 85.35 232.45 133.91 260.67" style="fill: rgb(197, 63, 63); transform-origin: 137.44px 230.505px;" id="el8fbaagm5719" class="animable"></polygon><polygon points="180.12 292.56 184.82 295.3 184.8 289.86 180.12 292.56" style="fill: rgb(230, 230, 230); transform-origin: 182.47px 292.58px;" id="el6dlictcj7kf" class="animable"></polygon><polygon points="184.69 263.54 184.69 263.49 184.69 263.49 184.69 263.49 184.69 263.54" style="fill: rgb(120, 120, 120); transform-origin: 184.69px 263.515px;" id="eljzkujqrnwt" class="animable"></polygon><rect x="161.81" y="250.28" height="52.82" style="fill: rgb(207, 207, 207); transform-origin: 161.81px 276.69px;" id="el4vv9dfkwf1j" class="animable"></rect><polygon points="184.61 237.08 138.87 263.49 138.87 263.49 184.61 237.08" style="fill: rgb(207, 207, 207); transform-origin: 161.74px 250.285px;" id="elsv12nlresop" class="animable"></polygon><g id="elcanoe17r84q"><path d="M184.8,289.86l0,5.44,4.89-2.83-.18-63.91-55.62,32.11.18,63.91,4.9-2.82,0-5.44,41.14-23.76Zm-45.93-26.37h0l45.74-26.41.06,20.73-45.75,26.41Zm.07,26.41h0l45.75-26.42h0v.06l.06,20.67L139,310.62Z" style="fill: rgb(255, 255, 255); opacity: 0.6; transform-origin: 161.79px 276.57px;" class="animable"></path></g><g id="el92oowag8qp"><polygon points="184.75 284.21 184.69 263.54 184.69 263.49 138.94 289.9 138.94 289.9 139 310.62 184.75 284.21" style="fill: rgb(255, 255, 255); opacity: 0.8; transform-origin: 161.845px 287.055px;" class="animable"></polygon></g><g id="elbog1mq6ipwp"><polygon points="184.67 257.81 184.61 237.08 138.87 263.49 138.87 263.49 138.93 284.22 184.67 257.81" style="fill: rgb(255, 255, 255); opacity: 0.8; transform-origin: 161.77px 260.65px;" class="animable"></polygon></g><polygon points="169.7 253.4 169.68 250.54 153.84 259.69 153.84 259.69 153.86 262.55 169.7 253.4" style="fill: rgb(69, 90, 100); transform-origin: 161.77px 256.545px;" id="elhpdwrsln8tc" class="animable"></polygon><polygon points="169.7 279.43 169.68 276.57 153.84 285.72 153.84 285.72 153.86 288.58 169.7 279.43" style="fill: rgb(69, 90, 100); transform-origin: 161.77px 282.575px;" id="el806cgamv493" class="animable"></polygon><g id="el138l7i096ve"><polygon points="133.91 260.67 85.35 232.45 85.53 296.36 134.09 324.58 133.91 260.67" style="fill: rgb(255, 255, 255); opacity: 0.5; transform-origin: 109.72px 278.515px;" class="animable"></polygon></g><g id="elyp9zgmo43cq"><polygon points="133.91 260.67 189.53 228.56 140.97 200.34 85.35 232.45 133.91 260.67" style="fill: rgb(255, 255, 255); opacity: 0.8; transform-origin: 137.44px 230.505px;" class="animable"></polygon></g></g><g id="freepik--Pictures--inject-35" class="animable" style="transform-origin: 144.62px 104.185px;"><polygon points="102.69 100.05 70.78 118.47 70.85 142.86 102.76 124.44 102.69 100.05" style="fill: none; transform-origin: 86.77px 121.455px;" id="elh6j1tw71zub" class="animable"></polygon><polygon points="102.69 100.05 102.76 124.44 105.72 126.16 105.64 98.35 102.69 100.05" style="fill: rgb(240, 240, 240); transform-origin: 104.205px 112.255px;" id="elj8pmykm06e" class="animable"></polygon><polygon points="70.85 142.86 70.86 146.28 105.72 126.16 102.76 124.44 70.85 142.86" style="fill: rgb(245, 245, 245); transform-origin: 88.285px 135.36px;" id="elxzepw6q0wam" class="animable"></polygon><path d="M109.2,92.19l-42,24.25.1,36,42-24.25ZM70.86,146.28v-3.42l-.07-24.39,31.91-18.42,3-1.7.08,27.81Z" style="fill: rgb(224, 224, 224); transform-origin: 88.25px 122.315px;" id="elh3uu0k7erpk" class="animable"></path><polygon points="109.2 92.19 106.24 90.47 64.24 114.72 67.2 116.44 109.2 92.19" style="fill: rgb(245, 245, 245); transform-origin: 86.72px 103.455px;" id="el2rq2ah7njf7" class="animable"></polygon><polygon points="64.24 114.72 64.34 150.73 67.3 152.45 67.2 116.44 64.24 114.72" style="fill: rgb(240, 240, 240); transform-origin: 65.77px 133.585px;" id="elycqfajon619" class="animable"></polygon><polygon points="154.61 113.95 122.7 132.37 122.77 156.76 154.68 138.34 154.61 113.95" style="fill: none; transform-origin: 138.69px 135.355px;" id="elwk8h38tjy9" class="animable"></polygon><polygon points="154.61 113.95 154.68 138.34 157.64 140.06 157.56 112.25 154.61 113.95" style="fill: rgb(240, 240, 240); transform-origin: 156.125px 126.155px;" id="el3797od3c6kh" class="animable"></polygon><polygon points="122.77 156.76 122.78 160.18 157.64 140.06 154.68 138.34 122.77 156.76" style="fill: rgb(245, 245, 245); transform-origin: 140.205px 149.26px;" id="ela9d5nnmktwf" class="animable"></polygon><path d="M161.12,106.09l-42,24.25.1,36,42-24.25Zm-38.34,54.09v-3.42l-.07-24.39L154.61,114l2.95-1.7.08,27.81Z" style="fill: rgb(224, 224, 224); transform-origin: 140.17px 136.215px;" id="el55sta9v9g5" class="animable"></path><polygon points="161.12 106.09 158.16 104.37 116.16 128.62 119.12 130.34 161.12 106.09" style="fill: rgb(245, 245, 245); transform-origin: 138.64px 117.355px;" id="el63ooz5uxvh9" class="animable"></polygon><polygon points="116.16 128.62 116.26 164.63 119.22 166.35 119.12 130.34 116.16 128.62" style="fill: rgb(240, 240, 240); transform-origin: 117.69px 147.485px;" id="elmz6vnw2tamm" class="animable"></polygon><path d="M203.93,102.87h0c.38-.18.76-.36,1.14-.56h0C204.7,102.5,204.32,102.69,203.93,102.87Z" style="fill: none; transform-origin: 204.5px 102.59px;" id="elf7aorzssw6q" class="animable"></path><path d="M203.52,103.07h0l.42-.21h0Z" style="fill: none; transform-origin: 203.73px 102.965px;" id="elxu2cxifw2z" class="animable"></path><polygon points="216.95 55.35 208.23 60.39 199.36 65.51 208.23 60.39 216.95 55.35" style="fill: none; transform-origin: 208.155px 60.43px;" id="elyjqaof2nvuo" class="animable"></polygon><polygon points="217.03 84.11 217.01 76.02 216.99 68.62 217.01 76.02 217.03 84.11" style="fill: none; transform-origin: 217.01px 76.365px;" id="el5cil8fgwrbo" class="animable"></polygon><path d="M205.08,102.3l.24-.11-.24.11Z" style="fill: none; transform-origin: 205.2px 102.245px;" id="elprazqw8dv6s" class="animable"></path><polygon points="217.13 119.6 217.12 112.83 217.1 106.91 217.12 112.83 217.13 119.6" style="fill: none; transform-origin: 217.115px 113.255px;" id="elv047iq7dd4q" class="animable"></polygon><path d="M200.13,104.46c1.12-.4,2.25-.87,3.39-1.39h0C202.38,103.59,201.25,104.06,200.13,104.46Z" style="fill: none; transform-origin: 201.825px 103.765px;" id="el9gdqrzb5cyu" class="animable"></path><polygon points="191.04 80.33 191.11 106.34 191.15 121.41 191.11 106.34 191.04 80.33" style="fill: none; transform-origin: 191.095px 100.87px;" id="el2g3wp9mca9y" class="animable"></polygon><path d="M217.12,112.83l0-5.92-.27.15-.5.3c-4.37,2.64-8.76,6.79-12.85,11.28q-1,1.11-2,2.25c-3.44,4-6.82,8.12-10.28,12l0,9.57,4.18-2.41A91.77,91.77,0,0,1,217.12,112.83Z" style="fill: rgb(235, 235, 235); transform-origin: 204.17px 124.685px;" id="el9v9gba640aq" class="animable"></path><path d="M217.16,127.52l0-7.92a50.09,50.09,0,0,0-8.87,13.06Z" style="fill: rgb(235, 235, 235); transform-origin: 212.725px 126.13px;" id="el8tjpnfsbsje" class="animable"></path><path d="M208.26,132.66a50.09,50.09,0,0,1,8.87-13.06v-6.77a91.77,91.77,0,0,0-21.73,27.26l12.87-7.43Z" style="fill: rgb(250, 250, 250); transform-origin: 206.265px 126.46px;" id="elj3gwajpxtii" class="animable"></path><path d="M203.52,103.07h0" style="fill: none; stroke: gray; stroke-linecap: round; stroke-linejoin: round; stroke-width: 0px; transform-origin: 203.52px 103.07px;" id="el91w2cwg8ne5" class="animable"></path><path d="M203.93,102.87h0" style="fill: none; stroke: gray; stroke-linecap: round; stroke-linejoin: round; stroke-width: 0px; transform-origin: 203.93px 102.87px;" id="elt7tavf5k5" class="animable"></path><path d="M199.53,104.67l.6-.21c1.12-.4,2.25-.87,3.39-1.39l.41-.2c.39-.18.77-.37,1.15-.57.66-.33,1.32-.68,2-1.06-.67.38-1.33.73-2,1.06l.24-.11c.58-.3,1.16-.62,1.75-1l.37-.21.3-.18a63,63,0,0,0,8.94-6.4l.38-.33,0-10c-6.35,3.25-12.6,4.26-17.64,2.69A15.42,15.42,0,0,1,191,80.33l.07,26A30.72,30.72,0,0,0,199.53,104.67Z" style="fill: rgb(250, 250, 250); transform-origin: 204.03px 93.33px;" id="elqjy5ksgkpqs" class="animable"></path><path d="M203.48,118.64c4.09-4.49,8.48-8.64,12.85-11.28l.5-.3.27-.15,0-5.74A124.55,124.55,0,0,0,193.69,119c-.85.81-1.69,1.64-2.54,2.43l0,11.52c3.46-3.92,6.84-8.09,10.28-12Q202.46,119.75,203.48,118.64Z" style="fill: rgb(250, 250, 250); transform-origin: 204.125px 117.06px;" id="el9mg1936ec3i" class="animable"></path><path d="M217.08,101.17l0-7-.38.33a63,63,0,0,1-8.94,6.4l-.3.18-.37.21c-.59.33-1.17.65-1.75,1l-.24.11-.16.09h0l.16-.09c-.38.2-.76.38-1.14.56l-.42.21c-1.14.52-2.27,1-3.39,1.39l.64-.23-.64.23-.6.21a30.72,30.72,0,0,1-8.42,1.67l0,15.07c.85-.79,1.69-1.62,2.54-2.43A124.55,124.55,0,0,1,217.08,101.17Z" style="fill: rgb(235, 235, 235); transform-origin: 204.105px 107.84px;" id="elvxpll4oo6d" class="animable"></path><path d="M217,76l0-7.4c-4-.94-7.13-3.86-8.76-8.23l-8.87,5.12A18.31,18.31,0,0,0,217,76Z" style="fill: rgb(250, 250, 250); transform-origin: 208.185px 68.2001px;" id="elg2eq1k95y5d" class="animable"></path><path d="M199.39,86.8c5,1.57,11.29.56,17.64-2.69L217,76a18.31,18.31,0,0,1-17.65-10.51L191,70.33l0,10A15.42,15.42,0,0,0,199.39,86.8Z" style="fill: rgb(235, 235, 235); transform-origin: 204.015px 76.5082px;" id="el9w10l1lmr0g" class="animable"></path><path d="M218.41,52.83,189.54,69.5l.21,75.52,28.87-16.67Zm-27.2,89.67,0-9.57,0-11.52,0-15.07-.07-26,0-10,8.35-4.82,8.87-5.12,8.72-5,0,13.27,0,7.4,0,8.09,0,10,0,7,0,5.74,0,5.92v6.77l0,7.92-8.9,5.14h0l-12.87,7.43Z" style="fill: rgb(255, 255, 255); transform-origin: 204.08px 98.925px;" id="elbjsyo8dhcsf" class="animable"></path><path d="M204.9,102.4h0" style="fill: none; stroke: gray; stroke-linecap: round; stroke-linejoin: round; stroke-width: 0px; transform-origin: 204.9px 102.4px;" id="elkziy9x0m9r" class="animable"></path><path d="M204.92,102.39l.16-.09" style="fill: none; stroke: gray; stroke-linecap: round; stroke-linejoin: round; stroke-width: 0px; transform-origin: 205px 102.345px;" id="el15ewhx73fep" class="animable"></path><path d="M207.07,101.24c-.67.38-1.33.73-2,1.06" style="fill: none; stroke: gray; stroke-linecap: round; stroke-linejoin: round; stroke-width: 0px; transform-origin: 206.07px 101.77px;" id="eluvn9kvpz4el" class="animable"></path><line x1="205.08" y1="102.3" x2="205.08" y2="102.3" style="fill: none; stroke: gray; stroke-linecap: round; stroke-linejoin: round; stroke-width: 0px; transform-origin: 205.08px 102.3px;" id="elz5odibbpedm" class="animable"></line><path d="M200.13,104.46l.64-.23" style="fill: none; stroke: gray; stroke-linecap: round; stroke-linejoin: round; stroke-width: 0px; transform-origin: 200.45px 104.345px;" id="ele52i6bdjlq5" class="animable"></path><path d="M217,68.62l0-13.27-8.72,5C209.86,64.76,213,67.68,217,68.62Z" style="fill: rgb(235, 235, 235); transform-origin: 212.64px 61.985px;" id="eluxnnx2t2trp" class="animable"></path><g id="el88rpau690ib"><polygon points="218.62 128.35 189.75 145.02 189.76 147.02 220.36 129.36 218.62 128.35" style="opacity: 0.2; transform-origin: 205.055px 137.685px;" class="animable"></polygon></g><polygon points="218.41 52.83 218.62 128.35 220.36 129.36 220.14 51.83 218.41 52.83" style="fill: rgb(240, 240, 240); transform-origin: 219.385px 90.595px;" id="el8d69ls76t03" class="animable"></polygon><path d="M224.78,43.79,184.87,66.84l.25,88.22L225,132ZM189.76,147v-2l-.21-75.52,28.87-16.67,1.73-1,.22,77.53Z" style="fill: rgb(224, 224, 224); transform-origin: 204.935px 99.425px;" id="elxwjloxx8vsa" class="animable"></path><polygon points="224.78 43.79 221.49 42.02 181.57 65.07 184.87 66.84 224.78 43.79" style="fill: rgb(245, 245, 245); transform-origin: 203.175px 54.43px;" id="eleaktiebwxwe" class="animable"></polygon><polygon points="181.57 65.07 181.82 153.29 185.12 155.06 184.87 66.84 181.57 65.07" style="fill: rgb(240, 240, 240); transform-origin: 183.345px 110.065px;" id="eldfyysk3fbb" class="animable"></polygon><polygon points="92.55 109.31 101.25 116.16 101.27 122.86 72.33 139.57 72.31 132.87 77.83 121.92 82.78 125.76 81.03 131.2 83.57 126.37 92.55 109.31" style="fill: rgb(224, 224, 224); transform-origin: 86.79px 124.44px;" id="elymfkaz76z2s" class="animable"></polygon><path d="M83.05,112.68c1.36-.78,2.47-.15,2.47,1.41a5.4,5.4,0,0,1-2.46,4.26c-1.36.79-2.47.16-2.47-1.41A5.4,5.4,0,0,1,83.05,112.68Z" style="fill: rgb(224, 224, 224); transform-origin: 83.055px 115.518px;" id="elj1dm2my16x" class="animable"></path><polygon points="144.47 123.21 153.18 130.06 153.19 136.76 124.25 153.47 124.23 146.77 129.75 135.82 134.7 139.66 132.95 145.1 135.49 140.27 144.47 123.21" style="fill: rgb(224, 224, 224); transform-origin: 138.71px 138.34px;" id="elhwmeo9blssk" class="animable"></polygon><path d="M135,126.58c1.36-.78,2.47-.15,2.47,1.41a5.42,5.42,0,0,1-2.46,4.26c-1.36.79-2.47.16-2.47-1.41A5.4,5.4,0,0,1,135,126.58Z" style="fill: rgb(224, 224, 224); transform-origin: 135.005px 129.418px;" id="elpfenkzivdfo" class="animable"></path></g><g id="freepik--Plants--inject-35" class="animable" style="transform-origin: 272.557px 252.75px;"><path d="M405.37,301l-15,.44-15-.44c-.65,10.14,1.33,20.48,4.07,25.53h0a6.8,6.8,0,0,0,3,3c4.43,2.56,11.6,2.56,16,0a6.63,6.63,0,0,0,3-3.11C404.05,321.35,406,311.06,405.37,301Z" style="fill: rgb(255, 255, 255); transform-origin: 390.367px 316.225px;" id="eliq799tj1zrp" class="animable"></path><path d="M400.93,294.82c5.89,3.39,5.92,8.9.07,12.3s-15.36,3.4-21.24,0-5.92-8.91-.07-12.3S395.05,291.42,400.93,294.82Z" style="fill: rgb(235, 235, 235); transform-origin: 390.347px 300.972px;" id="elg6od6147ils" class="animable"></path><path d="M398.6,296.17c4.6,2.65,4.62,6.95.06,9.6s-12,2.65-16.58,0-4.61-6.95-.05-9.6S394,293.52,398.6,296.17Z" style="fill: rgb(224, 224, 224); transform-origin: 390.346px 300.97px;" id="elszdcyvxag4" class="animable"></path><g id="elgxed4ojxf6"><g style="opacity: 0.15; transform-origin: 390.346px 300.97px;" class="animable"><path d="M398.6,296.17c4.6,2.65,4.62,6.95.06,9.6s-12,2.65-16.58,0-4.61-6.95-.05-9.6S394,293.52,398.6,296.17Z" id="ele3p3a1yr31" class="animable" style="transform-origin: 390.346px 300.97px;"></path></g></g><path d="M415,236.86c-33.85,11.09-34.16,33.74-26.53,49.87,1.93,3.26,7.75,5,12.82-15l-8.89,1.14,10.36-5.26,2.7-8-8.64.64,11-4.61A162,162,0,0,1,415,236.86Z" style="fill: rgb(197, 63, 63); transform-origin: 399.711px 262.797px;" id="eljnlz1wjer1" class="animable"></path><g id="elamg3rfx86ma"><path d="M415,236.86c-33.85,11.09-34.16,33.74-26.53,49.87,1.93,3.26,7.75,5,12.82-15l-8.89,1.14,10.36-5.26,2.7-8-8.64.64,11-4.61A162,162,0,0,1,415,236.86Z" style="opacity: 0.2; transform-origin: 399.711px 262.797px;" class="animable"></path></g><path d="M405.47,242.53c-17.86,13.55-19.47,29.08-14.42,45.3C389.26,273.55,387.33,259.11,405.47,242.53Z" style="fill: rgb(255, 255, 255); transform-origin: 397.015px 265.18px;" id="elyiw2t7az0ae" class="animable"></path><path d="M357.7,259.87c33.37,4.7,37.42,25.74,33,42-1.25,3.36-6.38,6-14.44-11.88l8.48-.41-10.53-3.17-3.84-7.05,8.15-.84-11-2.47A153,153,0,0,0,357.7,259.87Z" style="fill: rgb(197, 63, 63); transform-origin: 374.936px 282.086px;" id="elqxba9vbo4j9" class="animable"></path><g id="elu08fc06xysh"><path d="M357.7,259.87c33.37,4.7,37.42,25.74,33,42-1.25,3.36-6.38,6-14.44-11.88l8.48-.41-10.53-3.17-3.84-7.05,8.15-.84-11-2.47A153,153,0,0,0,357.7,259.87Z" style="fill: rgb(255, 255, 255); opacity: 0.2; transform-origin: 374.936px 282.086px;" class="animable"></path></g><path d="M367.56,263.55c18.88,9.66,23,23.86,21,39.8C387.81,289.75,387.2,276,367.56,263.55Z" style="fill: rgb(255, 255, 255); transform-origin: 378.289px 283.45px;" id="elcd13k8joi3q" class="animable"></path><path d="M424.81,267.76c-30.6.5-36.61,19-34.44,34.19.75,3.16,5.09,6.08,14.34-9.09l-7.58-1.33,9.84-1.68,4.25-5.92L404,282.27l10.18-1A139.59,139.59,0,0,1,424.81,267.76Z" style="fill: rgb(197, 63, 63); transform-origin: 407.39px 286.123px;" id="el57lmjvnmfct" class="animable"></path><path d="M415.51,270c-18.09,6.59-23.36,18.93-23.34,33.53C394.33,291.32,396.42,279,415.51,270Z" style="fill: rgb(255, 255, 255); transform-origin: 403.84px 286.765px;" id="el5pibo32zyad" class="animable"></path><g id="ellqngjin2hcg"><path d="M127.2,225.78c5.77-3.33,15.08-3.33,20.81,0s5.7,8.72-.07,12.05-15.08,3.33-20.8,0S121.44,229.1,127.2,225.78Z" style="opacity: 0.05; transform-origin: 137.576px 231.805px;" class="animable"></path></g><path d="M122.21,204.83l15.81.46,15.82-.46c.68,10.68-1.41,21.57-4.28,26.88h0a7.21,7.21,0,0,1-3.13,3.19c-4.67,2.69-12.21,2.69-16.85,0a7,7,0,0,1-3.13-3.27C123.59,226.29,121.53,215.46,122.21,204.83Z" style="fill: rgb(255, 255, 255); transform-origin: 138.024px 220.874px;" id="elu6furc5mgym" class="animable"></path><path d="M126.87,198.36c-6.19,3.57-6.22,9.37-.07,12.95s16.17,3.58,22.37,0,6.23-9.38.07-12.95S133.07,194.78,126.87,198.36Z" style="fill: rgb(235, 235, 235); transform-origin: 138.024px 204.837px;" id="elsijyg5tvfi8" class="animable"></path><path d="M129.32,199.78c-4.83,2.79-4.86,7.32,0,10.11s12.61,2.79,17.45,0,4.86-7.32.05-10.11S134.16,197,129.32,199.78Z" style="fill: rgb(224, 224, 224); transform-origin: 138.05px 204.837px;" id="elk67ffj4vprh" class="animable"></path><g id="elsvdqeez235p"><g style="opacity: 0.15; transform-origin: 138.05px 204.837px;" class="animable"><path d="M129.32,199.78c-4.83,2.79-4.86,7.32,0,10.11s12.61,2.79,17.45,0,4.86-7.32.05-10.11S134.16,197,129.32,199.78Z" id="eldy1yoyfmnt" class="animable" style="transform-origin: 138.05px 204.837px;"></path></g></g><path d="M139.34,205.28a10.41,10.41,0,0,1-9.28,2.11,9.74,9.74,0,0,1-6.5-6.57,18.79,18.79,0,0,0,5.08-3.53,13.06,13.06,0,0,0-7.19.26,7.35,7.35,0,0,1-.54-6.86,12.59,12.59,0,0,1,8.57-.59,11.34,11.34,0,0,0-8.67-2.73,33.25,33.25,0,0,1,2.09-13.32c5.89.31,11.61,2.85,13.54,4.67a21.79,21.79,0,0,1-.66,6.27,5.08,5.08,0,0,0,2.75-4.05c3.68.92,5.26,2.76,5.84,4.17a15.39,15.39,0,0,1-3.49,7.07c3.46-1,4.87-4.9,4.87-4.9C149.15,195.35,148.5,204.49,139.34,205.28Z" style="fill: rgb(197, 63, 63); transform-origin: 133.973px 190.883px;" id="elge8wyatzpnr" class="animable"></path><g id="elir262i1kogr"><path d="M139.34,205.28a10.41,10.41,0,0,1-9.28,2.11,9.74,9.74,0,0,1-6.5-6.57,18.79,18.79,0,0,0,5.08-3.53,13.06,13.06,0,0,0-7.19.26,7.35,7.35,0,0,1-.54-6.86,12.59,12.59,0,0,1,8.57-.59,11.34,11.34,0,0,0-8.67-2.73,33.25,33.25,0,0,1,2.09-13.32c5.89.31,11.61,2.85,13.54,4.67a21.79,21.79,0,0,1-.66,6.27,5.08,5.08,0,0,0,2.75-4.05c3.68.92,5.26,2.76,5.84,4.17a15.39,15.39,0,0,1-3.49,7.07c3.46-1,4.87-4.9,4.87-4.9C149.15,195.35,148.5,204.49,139.34,205.28Z" style="opacity: 0.2; transform-origin: 133.973px 190.883px;" class="animable"></path></g><path d="M139.55,206.16h0a.34.34,0,0,0,.32-.36c-.57-7.45-4.83-19.74-15-29.88a.34.34,0,0,0-.48,0,.33.33,0,0,0,0,.48c10,10,14.22,22.12,14.78,29.45A.34.34,0,0,0,139.55,206.16Z" style="fill: rgb(245, 245, 245); transform-origin: 132.079px 190.992px;" id="elg0hprwbh5un" class="animable"></path><path d="M136.76,209.26a9.67,9.67,0,0,0,15.14-4,16.35,16.35,0,0,1-4.58-3.11,12.94,12.94,0,0,1,6.79.2,6.33,6.33,0,0,0,.95-6.12,12.48,12.48,0,0,0-8.09-.48,12,12,0,0,1,8.4-2.49,27.14,27.14,0,0,0-1.14-11.89c-5.62.34-11.18,2.67-13.11,4.32a17.53,17.53,0,0,0,.23,5.56,4.06,4.06,0,0,1-2.33-3.58c-3.52.86-5.11,2.5-5.74,3.75a12.41,12.41,0,0,0,2.84,6.25c-3.18-.91-4.26-4.32-4.26-4.32C128.2,200.52,128.26,208.58,136.76,209.26Z" style="fill: rgb(197, 63, 63); transform-origin: 142.571px 196.407px;" id="elccm0ffot54b" class="animable"></path><path d="M136.53,210.08a.34.34,0,0,0,.34-.29c1-6.49,5.68-17.25,15.77-26.24a.34.34,0,0,0,0-.48.34.34,0,0,0-.48,0c-10.23,9.11-15,20.05-16,26.65a.33.33,0,0,0,.28.38Z" style="fill: rgb(255, 255, 255); transform-origin: 144.447px 196.535px;" id="el1x3zusvzgh6" class="animable"></path></g><g id="freepik--Character--inject-35" class="animable animator-active" style="transform-origin: 241.665px 315.385px;"><path d="M123.18,402.77h0l-.08,0Z" style="fill: rgb(230, 230, 230); transform-origin: 123.14px 402.77px;" id="ellniozxqtn9" class="animable"></path><g id="elbkbhwfgsd0h"><path d="M258.25,291.35c8.63,5,8.67,13,.11,18s-22.5,5-31.12,0-8.67-13.05-.11-18S249.63,286.37,258.25,291.35Z" style="opacity: 0.1; transform-origin: 242.747px 300.363px;" class="animable"></path></g><path d="M337.3,300.73,331.81,304l6.81,16.35,1.66,4A8.46,8.46,0,0,1,336.63,335L270,372.7l-4.34,2.46-82.3-47.57-2.66,27.88,4.32.64.31-1.89a4.72,4.72,0,0,1,7-3.3L253,385.84a14.89,14.89,0,0,1,7.39,14.31l-.21,2.16h4.37l.89-5.29a14.85,14.85,0,0,1,7.25-10.42l70.08-40.37a5.59,5.59,0,0,1,7.83,2.44l6.63,13.93s2.17,1.16,3-.93Z" style="fill: rgb(69, 90, 100); transform-origin: 270.465px 351.52px;" id="el2c0l6hvbbnw" class="animable"></path><path d="M276.52,375.27l61.3-35.86a9.3,9.3,0,0,0,3.89-11.61l-3.09-7.43h0l1.66,4A8.46,8.46,0,0,1,336.63,335L270,372.7A4.48,4.48,0,0,0,276.52,375.27Z" style="fill: rgb(55, 71, 79); transform-origin: 306.214px 348.119px;" id="el12d8jc82bwrk" class="animable"></path><path d="M259.35,232l-65.88,51a18.58,18.58,0,0,0-7.12,13L179,373.4a2.51,2.51,0,0,0,3.06.27l13.13-77.73a9.28,9.28,0,0,1,4.39-6.43l58.21-34.88C265.36,250.09,266.7,234.05,259.35,232Z" style="fill: rgb(69, 90, 100); transform-origin: 221.609px 303.034px;" id="el82w38npb2bh" class="animable"></path><g id="el5ti598aiybq"><path d="M259.35,232l-65.88,51a18.58,18.58,0,0,0-7.12,13L179,373.4a2.51,2.51,0,0,0,3.06.27l13.13-77.73a9.28,9.28,0,0,1,4.39-6.43l58.21-34.88C265.36,250.09,266.7,234.05,259.35,232Z" style="fill: rgb(255, 255, 255); opacity: 0.3; transform-origin: 221.609px 303.034px;" class="animable"></path></g><path d="M334.8,320.1h0a3.68,3.68,0,0,0-1.59-1.87l-66-38.13a9.19,9.19,0,0,0-9.2,0l-65.57,38.11a3.65,3.65,0,0,0-1.59,1.88h0c-1.88,3.47-2.52,11.36.11,16.39a4,4,0,0,0,1.5,1.59l66,38.14a9.15,9.15,0,0,0,9.19,0l65.57-38.1a3.6,3.6,0,0,0,1.48-1.62h0C337.31,331.46,336.68,323.57,334.8,320.1Z" style="fill: rgb(197, 63, 63); transform-origin: 262.824px 328.157px;" id="el6r3ed2jcb8i" class="animable"></path><g id="elrt2hgosd3"><path d="M334.8,320.1h0a3.68,3.68,0,0,0-1.59-1.87l-66-38.13a9.19,9.19,0,0,0-9.2,0l-65.57,38.11a3.65,3.65,0,0,0-1.59,1.88h0c-1.88,3.47-2.52,11.36.11,16.39a4,4,0,0,0,1.5,1.59l66,38.14a9.15,9.15,0,0,0,9.19,0l65.57-38.1a3.6,3.6,0,0,0,1.48-1.62h0C337.31,331.46,336.68,323.57,334.8,320.1Z" style="opacity: 0.3; transform-origin: 262.824px 328.157px;" class="animable"></path></g><g id="el0do4rwu9rfhm"><path d="M334.8,320.1h0a3.66,3.66,0,0,1-1.59,4.48l-65.57,38.11a9.15,9.15,0,0,1-9.19,0l-66-38.13a3.66,3.66,0,0,1-1.6-4.47h0c-1.88,3.47-2.52,11.36.11,16.39a4,4,0,0,0,1.5,1.59l66,38.14a9.15,9.15,0,0,0,9.19,0l65.57-38.1a3.6,3.6,0,0,0,1.48-1.62h0C337.31,331.46,336.68,323.57,334.8,320.1Z" style="opacity: 0.3; transform-origin: 262.824px 348.769px;" class="animable"></path></g><path d="M262,218.71h0l0,0Z" style="fill: rgb(255, 168, 167); transform-origin: 262px 218.71px;" id="elkx8ohz7p5es" class="animable"></path><path d="M340.26,247.63l-62.45-36a3.71,3.71,0,0,0-1.82-.51h-.31c-5.71.06-10.18,3.46-13.5,7.45l-.13.16,0,0a3.78,3.78,0,0,0-.71,1.4l-17.92,66.73a8.89,8.89,0,0,0,4.14,10L310,332.88a3.73,3.73,0,0,0,2.2.5h0c7.14-.73,11.35-5.15,13.46-7.48a3.88,3.88,0,0,0,.85-1.56l17.91-66.73A8.88,8.88,0,0,0,340.26,247.63Z" style="fill: rgb(197, 63, 63); transform-origin: 293.917px 272.257px;" id="elf0y84c0ckb" class="animable"></path><g id="elu77ku6jsf6k"><path d="M340.26,247.63l-62.45-36a3.71,3.71,0,0,0-1.82-.51h-.31c-5.71.06-10.18,3.46-13.5,7.45l-.13.16,0,0a3.78,3.78,0,0,0-.71,1.4l-17.92,66.73a8.89,8.89,0,0,0,4.14,10L310,332.88a3.73,3.73,0,0,0,2.2.5h0c7.14-.73,11.35-5.15,13.46-7.48a3.88,3.88,0,0,0,.85-1.56l17.91-66.73A8.88,8.88,0,0,0,340.26,247.63Z" style="opacity: 0.2; transform-origin: 293.917px 272.257px;" class="animable"></path></g><g id="elxv4aa42k63h"><path d="M340.26,247.63l-62.45-36a3.72,3.72,0,0,0-1.83-.51h-.3c-5.71.06-10.18,3.46-13.5,7.45a3.8,3.8,0,0,1,4.7-.71l62.45,36.05a8.83,8.83,0,0,1,3.86,4.57l10.91-6.3A8.86,8.86,0,0,0,340.26,247.63Z" style="opacity: 0.1; transform-origin: 303.14px 234.8px;" class="animable"></path></g><g id="eldowjy4gjwm"><path d="M333.19,258.43a8.85,8.85,0,0,1,.27,5.42l-17.91,66.73a3.8,3.8,0,0,1-3.38,2.8h0c7.14-.73,11.35-5.15,13.46-7.48a3.88,3.88,0,0,0,.85-1.56l17.91-66.73a8.92,8.92,0,0,0-.29-5.49Z" style="opacity: 0.2; transform-origin: 328.43px 292.75px;" class="animable"></path></g><path d="M220.25,436c3.52-2.36,6.14-6.22,9.31-9a23.71,23.71,0,0,1,6.31-4l.22-1.93.7-16.63H220.92l-.25,12.12a8.67,8.67,0,0,1-1.55,4.74c-1.5,2.17-2.83,4.21-3.73,5.63a15.37,15.37,0,0,1,7,3.14A25.67,25.67,0,0,1,220.25,436Z" style="fill: rgb(255, 168, 167); transform-origin: 226.09px 420.22px;" id="eluiwt602awcn" class="animable"></path><path d="M236.72,421.45l-.63-.44-.22,1.93a23.71,23.71,0,0,0-6.31,4c-3.17,2.82-5.79,6.68-9.31,9a25.67,25.67,0,0,0,2.13-6,15.37,15.37,0,0,0-7-3.14,14.79,14.79,0,0,0-2.2-.23,53.7,53.7,0,0,1-15.49,13.91,2.75,2.75,0,0,0-1.38,2.4v1.55c2.56,4.3,6.92,5,16.11,5s14.83-11.11,17-13.51,5.87-2.43,7.85-5.74C237.26,430.25,237.68,424.36,236.72,421.45Z" style="fill: rgb(69, 90, 100); transform-origin: 216.831px 435.22px;" id="elknpy5funvqb" class="animable"></path><path d="M178.39,415c3.52-2.36,6.14-6.22,9.31-9a23.55,23.55,0,0,1,6.31-4l.22-1.93.7-16.63-15.74-6.24-.39,18.36a8.58,8.58,0,0,1-1.54,4.74c-1.5,2.17-2.83,4.21-3.74,5.63a15.41,15.41,0,0,1,7,3.14A25.67,25.67,0,0,1,178.39,415Z" style="fill: rgb(255, 168, 167); transform-origin: 184.225px 396.1px;" id="el5fbzlxoqerb" class="animable"></path><path d="M194.85,400.42l-.62-.44-.22,1.93a23.55,23.55,0,0,0-6.31,4c-3.17,2.82-5.79,6.68-9.31,9a25.67,25.67,0,0,0,2.13-6,15.41,15.41,0,0,0-7-3.14,14.65,14.65,0,0,0-2.2-.23,53.42,53.42,0,0,1-15.49,13.91,2.77,2.77,0,0,0-1.37,2.4v1.55c2.56,4.3,6.92,5,16.11,5s14.82-11.11,17-13.51,5.88-2.43,7.85-5.74C195.39,409.22,195.82,403.33,194.85,400.42Z" style="fill: rgb(69, 90, 100); transform-origin: 174.975px 414.19px;" id="elgtoo3m255jm" class="animable"></path><path d="M225.51,297.45c-22.79,8.37-42.56,16.28-45.35,41.17s-2.67,37.91-2.67,37.91c14,33.45,59.37,37.69,67.91,25,0,0,2.44-32.65,1.16-40.32,20-10.82,37.16-20.52,42.07-24.63C296.07,299.2,242.93,293.25,225.51,297.45Z" style="fill: rgb(197, 63, 63); transform-origin: 233.414px 352.207px;" id="elfz1t6xyb5pa" class="animable"></path><g id="el6wl40bkshts"><path d="M225.51,297.45c-22.79,8.37-42.56,16.28-45.35,41.17s-2.67,37.91-2.67,37.91c14,33.45,59.37,37.69,67.91,25,0,0,2.44-32.65,1.16-40.32,20-10.82,37.16-20.52,42.07-24.63C296.07,299.2,242.93,293.25,225.51,297.45Z" style="fill: rgb(255, 255, 255); opacity: 0.2; transform-origin: 233.414px 352.207px;" class="animable"></path></g><path d="M241.58,225.47l-1.46.21A19.91,19.91,0,0,0,224,239.43l-8.82,28.17-3.51,1.47a14,14,0,0,0-8.35,10.32h0l9,11.35,18-8.83Z" style="fill: rgb(69, 90, 100); transform-origin: 222.45px 258.105px;" id="elowkujkwhir" class="animable"></path><path d="M288.63,336.55c-3-7.88-10.4-13.36-18.15-16.71s-16.14-5-24.1-7.82-17.76-7.77-22.26-14.92l.37-.31a12.05,12.05,0,0,0,3-14.54,16.71,16.71,0,0,1-1.66-6.95c-.13-4.46,1.17-8.83,2.46-13.1Q233,246.6,237.66,231c17.89-8.49,27.8-7.11,39-5.73s24,8,28.56,30S314,328.87,288.63,336.55Z" style="fill: rgb(69, 90, 100); transform-origin: 266.393px 280.394px;" id="el48pfqlwj658" class="animable"></path><g id="elak09ugkjg2e"><path d="M288.63,336.55c-3-7.88-10.4-13.36-18.15-16.71s-16.14-5-24.1-7.82-17.76-7.77-22.26-14.92l.37-.31a12.05,12.05,0,0,0,3-14.54,16.71,16.71,0,0,1-1.66-6.95c-.13-4.46,1.17-8.83,2.46-13.1Q233,246.6,237.66,231c17.89-8.49,27.8-7.11,39-5.73s24,8,28.56,30S314,328.87,288.63,336.55Z" style="fill: rgb(255, 255, 255); opacity: 0.2; transform-origin: 266.393px 280.394px;" class="animable"></path></g><path d="M247.69,230.77q.5,3.78,1,7.56a13.82,13.82,0,0,0,19.84-7,27.86,27.86,0,0,1-2.66-7C260.35,226.88,253.63,229.61,247.69,230.77Z" style="fill: rgb(255, 168, 167); transform-origin: 258.11px 232.264px;" id="elw3ash0ppage" class="animable"></path><g id="eljyuy0626sba"><path d="M247.69,230.77q.5,3.78,1,7.56c12.87-2,18.72-6.22,17.69-12.07h0c-.19-.61-.36-1.24-.51-1.87C260.35,226.88,253.63,229.61,247.69,230.77Z" style="opacity: 0.2; transform-origin: 257.093px 231.36px;" class="animable"></path></g><path d="M273.33,183.33a9.41,9.41,0,0,1,9.49-1.23,11.67,11.67,0,0,1,6.41,7.35,11.49,11.49,0,0,1-.15,7.44,9.13,9.13,0,0,1-5.13,5.29,9.47,9.47,0,0,1-8.94-1.53C270.26,197,268.22,187.59,273.33,183.33Z" style="fill: rgb(245, 245, 245); transform-origin: 280.06px 192.016px;" id="el1759cdp44sbj" class="animable"></path><path d="M277,195.8a9.16,9.16,0,0,0-5.8-9.51c-2,4.7,0,11.39,3.86,14.36a9.56,9.56,0,0,0,8.4,1.69A15.17,15.17,0,0,0,277,195.8Z" style="fill: rgb(224, 224, 224); transform-origin: 276.936px 194.483px;" id="elatrnhqdyvwd" class="animable"></path><path d="M232.79,210.91a5.67,5.67,0,0,1-3.8-5.17,9.59,9.59,0,0,1,2.26-6.31,7.4,7.4,0,0,1-1.62-7.27,11.22,11.22,0,0,1,5-5.74,25.27,25.27,0,0,1,7.23-2.68c6.62-1.58,13.68-2.17,20.15,0s12.18,7.38,13.4,14.07a12.45,12.45,0,0,1,6.36,8.84,24.79,24.79,0,0,1-1,11.16c-1,3.39-2.37,6.82-5,9.14s-6.85,3.19-9.77,1.21a8.52,8.52,0,0,1-3.16-4.71,24.93,24.93,0,0,1-.77-5.71C253.8,212.08,242.38,213.58,232.79,210.91Z" style="fill: rgb(245, 245, 245); transform-origin: 255.498px 205.792px;" id="elfw94ir4bbi" class="animable"></path><path d="M267.47,225a7.44,7.44,0,0,1-3,6.14,22.2,22.2,0,0,1-6.35,3.16,45.6,45.6,0,0,1-9.26,2.68,15.18,15.18,0,0,1-9.4-1.38c-3.54-2-5.8-5.72-6.84-9.63s-1-8-1-12.06a42.17,42.17,0,0,1,.6-8.18,14.33,14.33,0,0,1,3.6-7.25c.21,1.85,2.63,2.92,4.48,3.13a11.17,11.17,0,0,0,5.41-1.12,16.59,16.59,0,0,1,5.32-1.6c3.44-.18,6.64,2.09,8.49,5s2.6,6.36,3.22,9.74a5.5,5.5,0,0,0,.82,2.39,1.87,1.87,0,0,0,2.23.71c.61-.31.88-1,1.24-1.59,1.53-2.46,5.37-2.87,7.58-1a6.26,6.26,0,0,1,1.06,7.88C274.14,224.43,270.33,225.39,267.47,225Z" style="fill: rgb(255, 168, 167); transform-origin: 254.108px 217.843px;" id="elllgik8capon" class="animable"></path><polygon points="244.89 214.29 238.26 221.62 243.94 223.92 244.89 214.29" style="fill: rgb(242, 143, 143); transform-origin: 241.575px 219.105px;" id="eljif5fb15tj" class="animable"></polygon><path d="M249.05,227.94l-4.93,1.28a3,3,0,0,0,3.21,1.65C248.53,230.6,249.14,229.17,249.05,227.94Z" style="fill: rgb(242, 143, 143); transform-origin: 246.589px 229.427px;" id="eltscpu8naeys" class="animable"></path><g id="el5ilpehbhsq6"><path d="M249.05,227.94l-4.93,1.28a3,3,0,0,0,3.21,1.65C248.53,230.6,249.14,229.17,249.05,227.94Z" style="opacity: 0.3; transform-origin: 246.589px 229.427px;" class="animable"></path></g><path d="M245.74,230.7a2.67,2.67,0,0,0,1.59.17,2.44,2.44,0,0,0,1.68-2.12,2.84,2.84,0,0,0-1.9.26A2.88,2.88,0,0,0,245.74,230.7Z" style="fill: rgb(242, 143, 143); transform-origin: 247.375px 229.805px;" id="elshbweiyu9lc" class="animable"></path><path d="M253.38,216.34a1.73,1.73,0,1,1-1.56-1.89A1.74,1.74,0,0,1,253.38,216.34Z" style="fill: rgb(38, 50, 56); transform-origin: 251.658px 216.172px;" id="eli5mcp8p034t" class="animable"></path><path d="M239,214.36a1.73,1.73,0,1,1-1.55-1.9A1.73,1.73,0,0,1,239,214.36Z" style="fill: rgb(38, 50, 56); transform-origin: 237.279px 214.182px;" id="el6yf6ce8cgjg" class="animable"></path><path d="M238,207.34l-4.07,2.26a2.47,2.47,0,0,1,1-2.63A2.93,2.93,0,0,1,238,207.34Z" style="fill: rgb(38, 50, 56); transform-origin: 235.929px 208.148px;" id="el8f46s6nmrzy" class="animable"></path><path d="M252.74,208.59l3.56,3a2.48,2.48,0,0,0-.48-2.78A2.94,2.94,0,0,0,252.74,208.59Z" style="fill: rgb(38, 50, 56); transform-origin: 254.635px 209.923px;" id="elcv6y4jobq8h" class="animable"></path><path d="M244.65,212.47c-.7,0-1.56-.15-2.26-.16a16.91,16.91,0,0,0-13.3-3.64l-.32,1.89,1,.59.38,5a4.26,4.26,0,0,0,2.64,3.62l1.37.56a5.27,5.27,0,0,0,6.35-1.9,10.66,10.66,0,0,0,1.64-3.55.78.78,0,0,1,.83-.63l.8.07a.79.79,0,0,1,.69.71,16.11,16.11,0,0,0,1.48,5.2,5.24,5.24,0,0,0,4.27,3l1.44.13a5.24,5.24,0,0,0,5.37-3.4,16.69,16.69,0,0,0,1.12-5.53h1.09l.21-1.39C255.94,211.16,247.74,210.57,244.65,212.47Zm-3.84,2.09a9.23,9.23,0,0,1-1.43,3.08,3.84,3.84,0,0,1-3.19,1.68,4,4,0,0,1-1.49-.29l-1.36-.56a2.87,2.87,0,0,1-1.78-2.44s-.48-5.94-.52-6.17h.63a14.45,14.45,0,0,1,9.46,3.23A8.63,8.63,0,0,1,240.81,214.56Zm14.93,4.92a3.85,3.85,0,0,1-3.59,2.5h-.35l-1.44-.13a3.86,3.86,0,0,1-3.12-2.21,14.28,14.28,0,0,1-1.36-4.74c0-.47-.14-.81-.16-1.41a12.3,12.3,0,0,1,4.89-.78,23.79,23.79,0,0,1,6.14.79l0,1A15.32,15.32,0,0,1,255.74,219.48Z" style="fill: rgb(55, 71, 79); transform-origin: 244.11px 215.926px;" id="elf2we6ismzke" class="animable"></path><path d="M259.47,213l8.1,1.4a10.42,10.42,0,0,0-.78,1.12l-7.53-1.13Z" style="fill: rgb(55, 71, 79); transform-origin: 263.415px 214.26px;" id="elm1x4fhqew2o" class="animable"></path><path d="M338.89,278.12l-65.88,51a18.58,18.58,0,0,0-7.12,12.94L258.5,419.5a2.49,2.49,0,0,0,3.06.27l13.13-77.72a9.28,9.28,0,0,1,4.39-6.43l58.22-34.89C344.9,296.2,346.24,280.16,338.89,278.12Z" style="fill: rgb(69, 90, 100); transform-origin: 301.127px 349.146px;" id="elzavx0nptlvq" class="animable"></path><g id="el8lnnn976unh"><path d="M338.89,278.12l-65.88,51a18.58,18.58,0,0,0-7.12,12.94L258.5,419.5a2.49,2.49,0,0,0,3.06.27l13.13-77.72a9.28,9.28,0,0,1,4.39-6.43l58.22-34.89C344.9,296.2,346.24,280.16,338.89,278.12Z" style="fill: rgb(255, 255, 255); opacity: 0.3; transform-origin: 301.127px 349.146px;" class="animable"></path></g><path d="M258.57,265.9a1.72,1.72,0,1,0-2.52-1.06l-30.67,17.79.46.8,30.68-17.79A1.72,1.72,0,0,0,258.57,265.9Z" style="fill: rgb(224, 224, 224); transform-origin: 242.407px 273.059px;" id="elfol97kpa8qq" class="animable"></path><path d="M207.24,250.86a1.71,1.71,0,1,1,3.18-1.27,1.69,1.69,0,0,1-.55,2l13.21,32.91-.87.34L209,251.92A1.71,1.71,0,0,1,207.24,250.86Z" style="fill: rgb(224, 224, 224); transform-origin: 215.098px 266.675px;" id="elxdkwj8re1e8" class="animable"></path><path d="M206.89,280.57a44.86,44.86,0,0,1-9.53,37.52L231.91,338c12.44-18.83,10.93-50.22,10.93-50.22l-25.7-15.32Z" style="fill: rgb(69, 90, 100); transform-origin: 220.129px 305.23px;" id="elkrubcsvzbj8" class="animable"></path><g id="elo5y7zxitlr"><path d="M206.89,280.57a44.86,44.86,0,0,1-9.53,37.52L231.91,338c12.44-18.83,10.93-50.22,10.93-50.22l-25.7-15.32Z" style="fill: rgb(255, 255, 255); opacity: 0.6; transform-origin: 220.129px 305.23px;" class="animable"></path></g><path d="M198,317.24l34.44,19.88c.25-.4.5-.81.74-1.22l-34.28-19.8C198.65,316.49,198.34,316.86,198,317.24Z" style="fill: rgb(197, 63, 63); transform-origin: 215.59px 326.61px;" id="el1evh7c9860i" class="animable"></path><path d="M227.35,328.6l-3.22-6.28-3.25,2.54-3.23-6.28-3.25,2.54-3.23-6.28-3.25,2.54-3.22-6.27-3.25,2.53-.37-.71c-.24.39-.47.78-.73,1.16l1.09,2.12,3.25-2.54,3.23,6.28,3.25-2.54,3.22,6.28,3.25-2.54,3.23,6.27,3.25-2.54,3.22,6.28,3.25-2.54,3.21,6.25c.23-.42.45-.85.67-1.28l-3.87-7.53Z" style="fill: rgb(197, 63, 63); transform-origin: 217.41px 322.99px;" id="elxjxd4f5rhz" class="animable"></path><path d="M203,309.59,236.56,329c.18-.45.35-.9.52-1.35l-33.51-19.35C203.37,308.73,203.17,309.16,203,309.59Z" style="fill: rgb(197, 63, 63); transform-origin: 220.04px 318.65px;" id="elyyfdi0mm2g" class="animable"></path><path d="M231.69,320.62l-3.23-6.28-3.25,2.54L222,310.6l-3.25,2.54-3.23-6.28-3.25,2.54L209,303.12l-3.25,2.54-.64-1.24c-.18.5-.36,1-.56,1.49l1.19,2.32,3.25-2.54,3.22,6.28,3.25-2.54,3.23,6.27,3.25-2.54,3.23,6.28,3.25-2.54,3.22,6.28,3.25-2.54,2.75,5.35c.18-.52.35-1,.52-1.56l-3.26-6.35Z" style="fill: rgb(197, 63, 63); transform-origin: 221.355px 314.555px;" id="elxbuw9gt7uod" class="animable"></path><path d="M206.39,300.37l33.2,19.17c.12-.49.24-1,.35-1.45l-33.22-19.18C206.61,299.4,206.51,299.89,206.39,300.37Z" style="fill: rgb(197, 63, 63); transform-origin: 223.165px 309.225px;" id="elud9l0d4ihm" class="animable"></path><path d="M235.6,311.67l-3.23-6.28-3.25,2.54-3.22-6.28-3.25,2.54-3.23-6.27-3.25,2.54L213,294.18l-3.25,2.54-2.06-4c0,.72-.13,1.44-.22,2.15l2.27,4.42,3.25-2.54,3.23,6.28,3.25-2.54,3.22,6.28,3.25-2.54,3.23,6.28,3.25-2.54,3.22,6.27,3.25-2.53,1.75,3.4c.13-.63.25-1.26.36-1.88l-2.1-4.09Z" style="fill: rgb(197, 63, 63); transform-origin: 224.235px 303.915px;" id="ell83bmobccc" class="animable"></path><path d="M207.76,289.82l33.82,19.52c.08-.51.15-1,.22-1.53l-34-19.65C207.78,288.71,207.77,289.26,207.76,289.82Z" style="fill: rgb(197, 63, 63); transform-origin: 224.78px 298.75px;" id="el4jxaaf2qdzu" class="animable"></path><path d="M237.35,301.34l-3.22-6.28-3.25,2.54-3.23-6.28-3.25,2.54-3.22-6.28-3.26,2.54-3.22-6.28-3.25,2.54-3.23-6.28-1.24,1c.15.75.28,1.5.38,2.26l.86-.67,3.22,6.28,3.25-2.54,3.23,6.27,3.25-2.54,3.22,6.28,3.25-2.54,3.23,6.28,3.25-2.54,3.22,6.28,3.25-2.54,1.6,3.11c.08-.74.15-1.47.21-2.18l-1.8-3.49Z" style="fill: rgb(197, 63, 63); transform-origin: 224.69px 292.295px;" id="el88zvfr8bwvw" class="animable"></path><path d="M210.55,277.68l-1.21,1,33.37,19.27c0-.56,0-1.09.07-1.61Z" style="fill: rgb(197, 63, 63); transform-origin: 226.06px 287.815px;" id="el4b7xhrcngj8" class="animable"></path><path d="M216.16,275.17l3.23,6.28,3.25-2.54,3.22,6.28,3.25-2.54,3.23,6.27,3.25-2.54,3.22,6.28,3.25-2.54.83,1.62c0-1.07,0-1.95,0-2.61l-.81-1.57-3.25,2.54-3.23-6.28-3.25,2.54-3.22-6.28-3.25,2.54-3.23-6.28-3.25,2.54-3-5.81-4.18,3.3.69,1.34Z" style="fill: rgb(197, 63, 63); transform-origin: 227.555px 282.865px;" id="ele801ggvj0bf" class="animable"></path><g id="elo637lhib66g"><g style="opacity: 0.5; transform-origin: 220.445px 305.095px;" class="animable"><g id="elvdauqux3r9o"><path d="M198,317.24l34.44,19.88c.25-.4.5-.81.74-1.22l-34.28-19.8C198.65,316.49,198.34,316.86,198,317.24Z" style="opacity: 0.5; transform-origin: 215.59px 326.61px;" class="animable"></path></g><g id="el2tsi9mz6urr"><path d="M227.35,328.6l-3.22-6.28-3.25,2.54-3.23-6.28-3.25,2.54-3.23-6.28-3.25,2.54-3.22-6.27-3.25,2.53-.37-.71c-.24.39-.47.78-.73,1.16l1.09,2.12,3.25-2.54,3.23,6.28,3.25-2.54,3.22,6.28,3.25-2.54,3.23,6.27,3.25-2.54,3.22,6.28,3.25-2.54,3.21,6.25c.23-.42.45-.85.67-1.28l-3.87-7.53Z" style="opacity: 0.5; transform-origin: 217.41px 322.99px;" class="animable"></path></g><g id="elsxcnktjrb5"><path d="M203,309.59,236.56,329c.18-.45.35-.9.52-1.35l-33.51-19.35C203.37,308.73,203.17,309.16,203,309.59Z" style="opacity: 0.5; transform-origin: 220.04px 318.65px;" class="animable"></path></g><g id="elzcopjriir5"><path d="M231.69,320.62l-3.23-6.28-3.25,2.54L222,310.6l-3.25,2.54-3.23-6.28-3.25,2.54L209,303.12l-3.25,2.54-.64-1.24c-.18.5-.36,1-.56,1.49l1.19,2.32,3.25-2.54,3.22,6.28,3.25-2.54,3.23,6.27,3.25-2.54,3.23,6.28,3.25-2.54,3.22,6.28,3.25-2.54,2.75,5.35c.18-.52.35-1,.52-1.56l-3.26-6.35Z" style="opacity: 0.5; transform-origin: 221.355px 314.555px;" class="animable"></path></g><g id="elrqj5dffupnj"><path d="M206.39,300.37l33.2,19.17c.12-.49.24-1,.35-1.45l-33.22-19.18C206.61,299.4,206.51,299.89,206.39,300.37Z" style="opacity: 0.5; transform-origin: 223.165px 309.225px;" class="animable"></path></g><g id="eldfinncucztq"><path d="M235.6,311.67l-3.23-6.28-3.25,2.54-3.22-6.28-3.25,2.54-3.23-6.27-3.25,2.54L213,294.18l-3.25,2.54-2.06-4c0,.72-.13,1.44-.22,2.15l2.27,4.42,3.25-2.54,3.23,6.28,3.25-2.54,3.22,6.28,3.25-2.54,3.23,6.28,3.25-2.54,3.22,6.27,3.25-2.53,1.75,3.4c.13-.63.25-1.26.36-1.88l-2.1-4.09Z" style="opacity: 0.5; transform-origin: 224.235px 303.915px;" class="animable"></path></g><g id="elearx27dnh6o"><path d="M207.76,289.82l33.82,19.52c.08-.51.15-1,.22-1.53l-34-19.65C207.78,288.71,207.77,289.26,207.76,289.82Z" style="opacity: 0.5; transform-origin: 224.78px 298.75px;" class="animable"></path></g><g id="elaq6867kpoft"><path d="M237.35,301.34l-3.22-6.28-3.25,2.54-3.23-6.28-3.25,2.54-3.22-6.28-3.26,2.54-3.22-6.28-3.25,2.54-3.23-6.28-1.24,1c.15.75.28,1.5.38,2.26l.86-.67,3.22,6.28,3.25-2.54,3.23,6.27,3.25-2.54,3.22,6.28,3.25-2.54,3.23,6.28,3.25-2.54,3.22,6.28,3.25-2.54,1.6,3.11c.08-.74.15-1.47.21-2.18l-1.8-3.49Z" style="opacity: 0.5; transform-origin: 224.69px 292.295px;" class="animable"></path></g><g id="elj9dzgz2rnzg"><path d="M210.55,277.68l-1.21,1,33.37,19.27c0-.56,0-1.09.07-1.61Z" style="opacity: 0.5; transform-origin: 226.06px 287.815px;" class="animable"></path></g><g id="elquvalg7bj8j"><path d="M216.16,275.17l3.23,6.28,3.25-2.54,3.22,6.28,3.25-2.54,3.23,6.27,3.25-2.54,3.22,6.28,3.25-2.54.83,1.62c0-1.07,0-1.95,0-2.61l-.81-1.57-3.25,2.54-3.23-6.28-3.25,2.54-3.22-6.28-3.25,2.54-3.23-6.28-3.25,2.54-3-5.81-4.18,3.3.69,1.34Z" style="opacity: 0.5; transform-origin: 227.555px 282.865px;" class="animable"></path></g></g></g><path d="M219.19,277.89l-2.21-7.7a2.07,2.07,0,0,0-1.33-1.44l-.31-.1a2.06,2.06,0,0,0-2.74,1.92h0l-1.76-.61a2.73,2.73,0,0,0-3.11,1l-.6.83-1.77-.12a2.72,2.72,0,0,0-2.6,1.48l-.61,1.19a2.71,2.71,0,0,0-2.73,2.54V277l3.7,6.42a2.78,2.78,0,0,0,3.54,1.16l6.81-3a2.78,2.78,0,0,0,1.6-3.11l-.36-1.78.91,2.42a1.89,1.89,0,0,0,3.58-1.17Z" style="fill: rgb(255, 168, 167); transform-origin: 209.335px 276.677px;" id="elwas5u51l22" class="animable"></path><path d="M256.33,284.17c-6,7.76.88,14.15,1.56,14.59C267.78,292.28,260.37,285,256.33,284.17Z" style="fill: rgb(55, 71, 79); transform-origin: 258.351px 291.465px;" id="el10w1e807f04" class="animable"></path><path d="M258.35,284.6,251,283l-7-6.3a4.65,4.65,0,0,0-4.65-.93l-7,2.46a4.64,4.64,0,0,0-1.86,1.22l-3.91,4.2a1.71,1.71,0,0,0,0,2.38h0a1.7,1.7,0,0,0,2.36.06l2.4-2.16-2.39,3.31a2.81,2.81,0,0,0,.05,3.34l3.23,4.19a2.79,2.79,0,0,0,4.36.08l1.08-1.3a7.28,7.28,0,0,1,3-2.17l1.23-.47a9.13,9.13,0,0,0,9.07,2.32l8,3C263.94,289.48,258.35,284.6,258.35,284.6Z" style="fill: rgb(255, 168, 167); transform-origin: 243.563px 285.869px;" id="elxdygjp2qvtb" class="animable"></path><path d="M286.33,284.54l-5-29.22c-2.86-16.45,2.85-27.53,9.23-25.68s11.08,1,14.27,27c1.42,11.57,2.57,22.85,3.42,31.81a15.82,15.82,0,0,1-17,17.24l-17.72-1.45a32.25,32.25,0,0,1-14.94-5.07l-.68-.44c4-9.26-1.56-14.59-1.56-14.59h0A20.07,20.07,0,0,1,268.5,282Z" style="fill: rgb(69, 90, 100); transform-origin: 282.334px 267.589px;" id="elos2ffi6uol" class="animable"></path></g><defs>     <filter id="active" height="200%">         <feMorphology in="SourceAlpha" result="DILATED" operator="dilate" radius="2"></feMorphology>                <feFlood flood-color="#32DFEC" flood-opacity="1" result="PINK"></feFlood>        <feComposite in="PINK" in2="DILATED" operator="in" result="OUTLINE"></feComposite>        <feMerge>            <feMergeNode in="OUTLINE"></feMergeNode>            <feMergeNode in="SourceGraphic"></feMergeNode>        </feMerge>    </filter>    <filter id="hover" height="200%">        <feMorphology in="SourceAlpha" result="DILATED" operator="dilate" radius="2"></feMorphology>                <feFlood flood-color="#ff0000" flood-opacity="0.5" result="PINK"></feFlood>        <feComposite in="PINK" in2="DILATED" operator="in" result="OUTLINE"></feComposite>        <feMerge>            <feMergeNode in="OUTLINE"></feMergeNode>            <feMergeNode in="SourceGraphic"></feMergeNode>        </feMerge>            <feColorMatrix type="matrix" values="0   0   0   0   0                0   1   0   0   0                0   0   0   0   0                0   0   0   1   0 "></feColorMatrix>    </filter></defs></svg>